<?xml version="1.0" standalone="no"?>
<!DOCTYPE svg PUBLIC "-//W3C//DTD SVG 20010904//EN"
 "http://www.w3.org/TR/2001/REC-SVG-20010904/DTD/svg10.dtd">
<svg version="1.0" xmlns="http://www.w3.org/2000/svg"
 width="2232.000000pt" height="2232.000000pt" viewBox="0 0 2232.000000 2232.000000"
 preserveAspectRatio="xMidYMid meet">
<metadata>
Created by potrace 1.14, written by Peter Selinger 2001-2017
</metadata>
<g transform="translate(0.000000,2232.000000) scale(0.100000,-0.100000)"
fill="#000000" stroke="none">
<path d="M10715 22189 c-2423 -98 -4750 -997 -6617 -2556 -458 -383 -948 -870
-1339 -1333 -902 -1067 -1615 -2347 -2052 -3685 -587 -1797 -701 -3716 -332
-5560 403 -2011 1343 -3850 2735 -5350 1444 -1556 3325 -2661 5411 -3180 1724
-429 3554 -429 5278 0 1387 345 2700 955 3831 1780 481 351 875 688 1306 1119
422 423 713 760 1056 1223 710 963 1254 2015 1621 3138 587 1797 701 3716 332
5560 -322 1608 -977 3086 -1953 4408 -343 463 -634 800 -1056 1223 -431 431
-825 768 -1306 1119 -1984 1447 -4448 2194 -6915 2094z m430 -1968 c105 -6
280 -16 390 -22 282 -16 313 -18 375 -23 264 -20 688 -25 1025 -12 342 13 433
15 665 16 265 0 467 -6 605 -21 55 -6 111 -10 125 -9 64 3 346 -48 440 -79 30
-10 88 -28 127 -40 67 -20 144 -69 180 -112 15 -19 35 -73 73 -199 18 -58 45
-143 60 -190 33 -98 66 -208 121 -400 21 -74 64 -223 95 -330 31 -107 66 -233
79 -280 13 -47 40 -146 60 -220 20 -74 57 -202 81 -285 24 -82 53 -181 64
-220 10 -38 48 -167 84 -285 77 -253 102 -343 120 -436 31 -159 57 -283 71
-345 8 -37 15 -75 15 -85 0 -11 21 -100 46 -199 25 -99 51 -205 58 -235 21
-84 113 -427 135 -500 11 -36 30 -107 42 -159 23 -90 25 -95 59 -108 19 -8 64
-27 100 -43 36 -16 146 -58 245 -94 167 -60 221 -75 410 -112 110 -22 335 -45
390 -41 151 13 300 60 453 145 158 88 192 97 352 97 156 0 170 -5 256 -97 68
-72 230 -318 295 -449 69 -137 75 -332 20 -581 -34 -152 -63 -226 -117 -299
-48 -66 -104 -93 -229 -112 -91 -14 -145 -19 -335 -32 -194 -14 -490 -4 -735
25 -44 5 -156 16 -250 25 -93 9 -235 23 -315 31 -476 50 -567 54 -576 29 -4
-8 -1 -88 5 -178 12 -180 6 -300 -30 -602 -26 -224 -32 -545 -13 -762 13 -149
22 -191 60 -263 69 -131 71 -221 14 -545 -11 -60 -26 -155 -34 -210 -61 -418
-117 -703 -191 -975 -19 -69 -46 -177 -60 -240 -14 -63 -35 -155 -46 -205 -33
-143 -79 -307 -150 -530 -22 -71 -51 -168 -64 -215 -13 -47 -28 -96 -33 -110
-5 -14 -17 -68 -27 -120 -10 -52 -31 -146 -46 -208 -16 -62 -29 -121 -29 -132
0 -11 -6 -34 -14 -52 -8 -18 -26 -76 -39 -128 -14 -52 -32 -120 -41 -150 -27
-100 -154 -534 -174 -595 -25 -74 -179 -497 -217 -595 -46 -118 -98 -261 -110
-300 -7 -25 -45 -133 -84 -240 -127 -356 -201 -570 -221 -646 -12 -42 -29 -93
-40 -113 -10 -21 -28 -66 -40 -102 -22 -66 -70 -174 -166 -376 -30 -64 -86
-182 -123 -262 -38 -80 -93 -193 -123 -251 -89 -171 -260 -494 -343 -650 -83
-156 -102 -200 -163 -361 -74 -197 -146 -316 -235 -389 -71 -57 -306 -170
-490 -235 -84 -29 -197 -70 -252 -91 -115 -42 -252 -91 -515 -181 -235 -81
-222 -76 -375 -117 -188 -49 -283 -81 -372 -125 -153 -76 -258 -110 -342 -111
-58 0 -148 20 -571 130 -80 21 -179 43 -220 50 -391 62 -664 136 -1085 295
-38 14 -128 46 -200 71 -136 48 -266 112 -348 172 -76 55 -172 183 -212 282
-9 23 -33 64 -182 310 -99 164 -226 414 -255 505 -32 97 -121 295 -231 513
-106 212 -103 207 -334 482 -106 126 -180 274 -263 526 -74 225 -99 294 -119
331 -11 21 -34 72 -50 113 -17 41 -72 152 -123 246 -106 195 -103 188 -158
314 -23 52 -50 115 -61 139 -11 25 -27 65 -36 90 -8 25 -31 87 -50 136 -36 92
-53 138 -104 285 -68 194 -112 358 -159 590 -27 135 -56 277 -65 315 -9 39
-27 129 -41 200 -13 72 -33 171 -44 220 -10 50 -24 117 -30 150 -7 33 -31 98
-55 145 -75 150 -93 193 -115 280 -12 47 -35 123 -50 170 -16 47 -40 135 -55
195 -14 61 -39 151 -55 200 -15 50 -31 106 -35 125 -4 19 -15 58 -25 85 -10
28 -27 88 -39 135 -69 281 -152 628 -171 710 -11 52 -27 122 -35 155 -14 60
-26 123 -43 225 -12 71 -1 204 22 255 24 55 96 127 194 192 45 30 82 60 82 66
-1 34 -31 262 -44 332 -16 85 -39 312 -56 560 -17 250 -2 762 31 1091 16 153
14 156 -94 148 -182 -13 -323 -33 -469 -65 -48 -10 -104 -19 -125 -19 -21 0
-54 -4 -73 -9 -79 -21 -1063 -30 -1290 -12 -179 14 -313 71 -415 177 -64 65
-88 124 -93 222 -4 75 -1 90 28 165 18 45 52 123 75 172 24 50 55 126 70 170
39 118 108 258 151 305 50 55 112 85 242 116 90 22 121 26 197 21 93 -6 206
-37 285 -77 210 -107 503 -117 879 -31 241 56 547 134 558 143 17 13 69 152
104 272 37 129 78 351 105 561 7 61 18 139 24 175 6 36 19 128 30 205 10 77
33 217 49 310 17 94 35 202 42 240 39 238 117 624 140 697 11 32 19 66 19 77
0 10 16 77 36 147 20 71 49 183 65 249 30 123 38 152 110 405 23 80 47 170 53
200 26 114 107 401 169 600 35 115 107 189 257 265 80 40 266 103 330 110 30
4 69 11 86 16 65 20 217 44 494 80 85 11 207 26 270 34 63 9 185 22 270 30 85
8 182 19 215 25 33 5 119 14 190 20 72 6 150 13 175 15 25 3 108 12 185 20 77
8 212 24 300 35 262 34 324 40 455 46 69 4 161 9 205 13 118 11 831 5 1050 -8z"/>
<path d="M10328 20134 c-4 -3 -39 -6 -80 -6 -40 0 -105 -7 -143 -14 -39 -7
-142 -16 -230 -20 -88 -3 -167 -10 -176 -14 -30 -16 -167 -24 -184 -10 -11 9
-22 9 -46 1 -17 -6 -36 -8 -41 -5 -5 3 -37 1 -71 -5 -64 -12 -133 -20 -202
-26 -64 -4 -144 -23 -174 -41 -21 -12 -35 -14 -62 -7 -40 11 -230 10 -249 -2
-7 -4 -74 -9 -150 -10 -76 -1 -144 -6 -151 -11 -8 -5 -32 -9 -54 -10 -134 -6
-251 -17 -272 -25 -13 -5 -38 -9 -55 -9 -17 0 -47 -4 -67 -9 -20 -6 -97 -22
-171 -36 -74 -15 -180 -37 -235 -50 -55 -13 -113 -26 -130 -28 -62 -10 -212
-46 -254 -61 -24 -9 -81 -39 -127 -66 -77 -46 -85 -49 -132 -43 l-49 5 -42
-54 c-23 -30 -49 -77 -58 -104 -9 -27 -25 -61 -35 -76 -11 -15 -23 -49 -28
-75 -4 -27 -18 -82 -30 -123 -13 -41 -26 -109 -30 -150 -4 -41 -18 -102 -30
-135 -19 -53 -35 -132 -46 -232 -2 -18 -9 -43 -15 -55 -7 -13 -14 -45 -15 -73
-2 -27 -10 -84 -18 -125 -9 -41 -16 -86 -16 -99 0 -28 -65 -334 -86 -405 -8
-26 -14 -77 -14 -112 0 -45 -6 -75 -21 -104 -12 -23 -27 -81 -34 -138 -13 -92
-18 -117 -51 -237 -7 -27 -16 -70 -20 -95 -3 -25 -14 -67 -24 -95 -10 -27 -21
-86 -25 -130 -3 -44 -13 -100 -21 -124 -8 -24 -19 -69 -24 -100 -14 -88 -37
-194 -49 -221 -10 -24 -27 -130 -57 -355 -15 -114 -26 -178 -43 -255 -18 -81
-20 -94 -37 -235 -12 -100 -22 -146 -35 -160 -9 -11 -25 -47 -34 -80 -9 -33
-25 -91 -36 -130 -22 -80 -25 -83 -64 -89 -17 -2 -52 -7 -80 -11 -27 -4 -77
-15 -110 -25 -33 -10 -91 -21 -127 -25 -37 -4 -73 -14 -79 -21 -7 -8 -31 -14
-60 -14 -26 0 -72 -9 -101 -21 -29 -12 -111 -29 -183 -39 -71 -11 -175 -26
-230 -34 -115 -18 -258 -21 -285 -6 -10 5 -36 12 -57 16 -21 3 -52 14 -70 24
-18 10 -47 23 -65 29 -18 5 -71 26 -118 46 -47 21 -101 43 -120 51 -75 28
-331 7 -352 -30 -5 -9 -22 -16 -38 -16 -17 0 -38 -8 -49 -17 -10 -10 -34 -30
-53 -45 -24 -18 -42 -45 -58 -88 -12 -33 -31 -72 -42 -85 -11 -14 -28 -50 -39
-81 -11 -30 -40 -89 -65 -130 -25 -41 -51 -91 -58 -113 -8 -21 -24 -57 -36
-80 -14 -29 -19 -52 -15 -71 4 -16 1 -39 -5 -51 -22 -41 5 -100 80 -178 38
-38 71 -79 75 -90 10 -34 81 -65 150 -67 33 -1 93 -7 133 -14 59 -11 77 -11
96 0 19 10 31 10 61 0 21 -7 79 -11 136 -10 125 3 160 2 234 -6 81 -8 172 -5
218 7 37 10 67 12 309 24 60 3 118 9 131 14 14 6 30 6 38 0 21 -13 67 -11 99
6 29 15 30 14 45 -15 18 -35 52 -39 110 -15 19 8 51 22 70 30 64 27 220 63
320 75 55 6 126 16 158 22 48 9 60 8 75 -4 9 -9 27 -19 40 -22 20 -7 22 -14
22 -66 0 -32 -5 -62 -10 -65 -6 -3 -9 -25 -9 -48 1 -23 -4 -103 -11 -177 -6
-74 -13 -164 -13 -200 -1 -36 -7 -74 -14 -85 -8 -14 -8 -26 -1 -39 5 -9 9 -63
9 -119 -1 -56 -1 -109 -1 -117 0 -8 2 -80 5 -159 6 -138 5 -145 -16 -167 -21
-22 -22 -30 -16 -121 6 -102 19 -176 42 -253 8 -25 19 -79 25 -120 7 -41 16
-91 22 -112 8 -25 7 -45 0 -67 -9 -26 -7 -44 13 -106 14 -42 25 -87 25 -101 0
-13 9 -52 21 -86 11 -33 19 -70 17 -81 -3 -21 -135 -97 -170 -97 -10 0 -38
-20 -62 -43 -78 -79 -91 -158 -65 -407 11 -102 15 -124 75 -405 10 -44 24 -96
32 -115 20 -49 61 -210 77 -305 7 -44 17 -91 23 -105 18 -44 42 -132 42 -152
0 -11 5 -28 11 -39 9 -17 54 -211 78 -334 4 -22 19 -76 33 -120 53 -166 78
-252 78 -271 0 -22 53 -157 112 -284 48 -105 73 -186 98 -320 12 -63 34 -155
51 -203 32 -97 50 -176 80 -347 27 -154 37 -191 61 -217 16 -17 20 -37 22
-105 1 -48 8 -94 16 -108 20 -36 49 -150 43 -167 -16 -40 112 -364 242 -619
52 -99 96 -198 100 -220 7 -46 17 -67 50 -113 14 -19 25 -45 25 -59 0 -14 15
-53 34 -86 18 -34 46 -90 62 -126 28 -63 70 -138 107 -190 9 -13 17 -31 17
-38 0 -8 8 -26 19 -40 10 -15 21 -40 25 -55 4 -16 19 -40 33 -55 14 -14 49
-72 78 -128 28 -56 64 -117 78 -134 19 -21 27 -43 27 -68 0 -21 11 -54 25 -77
43 -72 115 -214 115 -229 0 -30 -26 -4 -69 70 -25 42 -56 83 -69 92 -21 14
-25 14 -40 -1 -15 -15 -14 -21 14 -78 16 -34 42 -78 57 -98 16 -20 38 -52 48
-71 32 -59 176 -235 190 -233 8 1 23 3 33 5 15 2 32 -22 83 -122 34 -68 63
-134 63 -146 0 -11 9 -29 20 -39 13 -12 20 -31 20 -55 0 -23 9 -48 26 -71 14
-19 43 -71 65 -116 21 -44 50 -94 63 -110 32 -38 62 -115 71 -179 13 -97 98
-316 140 -364 13 -14 35 -49 49 -78 25 -49 29 -53 55 -47 27 6 30 2 70 -77 22
-46 64 -112 91 -147 27 -35 63 -90 79 -122 69 -137 75 -144 208 -209 68 -33
129 -60 138 -60 14 0 50 -15 190 -80 33 -15 71 -31 85 -35 14 -4 41 -18 60
-31 19 -13 44 -24 55 -24 11 0 53 -18 93 -40 40 -22 82 -40 93 -40 11 0 42
-11 69 -25 56 -29 80 -32 80 -10 0 19 3 19 70 -5 30 -11 69 -19 87 -20 17 0
58 -14 90 -31 51 -28 68 -32 148 -34 51 -1 101 -7 114 -15 21 -11 26 -10 38 6
10 14 16 15 25 6 7 -7 24 -12 38 -12 14 0 30 -4 36 -9 5 -5 38 -14 74 -20 36
-6 99 -20 140 -31 41 -11 85 -20 97 -20 12 0 43 -9 69 -20 54 -23 219 -69 279
-77 22 -3 45 -9 51 -14 15 -12 95 -13 164 -2 38 6 78 23 130 55 41 26 89 50
105 54 37 8 104 41 127 61 11 10 28 14 46 10 16 -3 33 -2 38 2 16 14 97 39
143 44 24 3 66 17 93 31 27 14 59 26 69 26 11 0 50 15 87 34 157 80 221 108
248 105 55 -5 214 36 285 72 20 11 52 19 70 19 19 0 43 7 53 15 11 8 27 15 37
15 9 0 27 8 40 19 13 10 38 21 54 25 17 4 44 10 60 14 44 11 132 59 138 77 4
8 16 15 27 15 51 0 202 62 245 101 11 10 40 25 65 34 58 21 83 43 76 71 -5 17
1 26 28 42 26 16 38 32 49 69 9 26 29 75 46 108 17 33 34 77 37 97 4 20 17 47
30 59 17 16 24 33 24 59 0 24 7 43 20 55 11 10 20 29 20 42 0 13 11 34 24 47
14 12 30 44 37 72 6 27 20 58 29 69 20 22 73 126 85 165 4 13 18 32 30 42 15
12 24 32 28 64 3 28 11 51 21 56 9 5 16 14 16 19 0 6 6 25 14 42 8 18 27 64
42 102 14 39 33 77 40 86 8 8 14 19 14 23 0 5 12 23 28 41 35 41 80 124 109
198 12 32 36 77 53 101 23 32 30 49 25 68 -5 19 -1 29 12 39 11 8 37 48 58 89
49 98 50 99 113 213 38 70 53 106 49 124 -3 14 10 65 30 121 19 54 46 131 58
172 13 41 37 113 54 160 16 47 34 113 40 147 5 34 17 76 26 93 9 17 27 65 41
106 13 41 28 82 33 91 5 10 19 55 32 101 12 46 30 93 39 105 10 12 20 36 23
52 9 50 56 175 77 210 11 18 20 38 20 45 0 6 9 24 21 38 67 88 82 129 54 152
-19 16 -19 49 -1 69 8 9 27 48 41 86 15 39 37 97 50 130 12 33 28 73 34 89 7
16 9 36 6 44 -3 8 1 25 9 37 21 32 66 145 66 166 0 10 10 19 25 23 24 6 31 21
65 156 6 25 22 61 35 80 16 25 27 62 35 125 13 102 18 124 55 250 26 89 32
111 54 230 7 33 18 87 26 120 7 33 23 128 35 210 26 190 35 235 64 315 43 118
73 234 137 535 6 28 22 75 34 105 81 192 128 324 151 425 8 33 20 76 28 95 8
19 19 78 26 130 20 159 28 203 45 260 9 30 17 80 19 110 2 30 11 82 19 115 19
69 33 184 42 335 4 66 14 126 27 160 23 64 33 191 17 237 -5 17 -30 48 -54 67
l-44 36 -4 98 c-8 158 -16 241 -26 260 -11 20 -15 229 -9 392 4 98 16 180 54
375 31 162 30 243 -9 407 -10 44 -9 50 11 68 29 27 29 79 0 227 -20 103 -21
115 -6 129 12 12 20 13 35 6 18 -10 183 -23 267 -22 21 0 46 -6 55 -13 9 -8
35 -17 59 -21 23 -3 60 -9 82 -12 36 -6 40 -4 49 20 11 28 17 28 116 6 22 -5
72 -12 110 -15 39 -3 97 -13 130 -21 32 -9 73 -14 89 -11 17 2 50 -2 74 -10
23 -9 52 -13 63 -10 12 3 33 1 47 -4 26 -10 246 -30 318 -29 22 0 56 -5 75
-12 23 -9 85 -13 189 -12 210 2 204 2 250 20 32 13 46 14 68 5 17 -7 78 -10
160 -7 121 3 135 5 155 25 17 17 19 25 10 39 -15 25 0 48 42 62 39 13 64 44
87 110 24 69 28 91 39 238 5 76 14 164 20 198 9 50 8 68 -5 99 -9 20 -16 44
-16 52 0 8 -27 71 -60 139 -57 120 -121 222 -181 292 -16 18 -29 36 -29 41 0
12 -50 60 -93 89 l-37 25 -108 -17 c-114 -18 -216 -48 -266 -77 -57 -33 -200
-109 -276 -146 -75 -38 -75 -38 -205 -38 -140 0 -455 44 -507 71 -14 8 -46 14
-70 14 -60 0 -179 32 -313 85 -60 23 -137 52 -170 64 -33 12 -82 33 -109 47
-28 13 -60 24 -73 24 -24 0 -73 61 -73 92 0 9 -10 41 -21 70 -25 61 -40 120
-43 163 -1 17 -11 46 -24 66 -14 23 -22 53 -22 80 0 24 -10 64 -21 89 -11 25
-27 74 -34 110 -28 132 -43 188 -84 300 -22 63 -41 126 -41 140 0 14 -9 44
-20 65 -13 24 -19 51 -16 66 3 14 0 31 -7 38 -12 12 -34 141 -66 389 -11 84
-27 181 -35 215 -8 34 -20 89 -26 122 -6 33 -21 73 -32 89 -11 15 -23 47 -26
69 -3 23 -18 59 -33 80 -15 20 -33 61 -40 90 -7 28 -18 67 -26 85 -8 19 -11
43 -8 54 7 19 -44 197 -71 250 -8 14 -14 34 -14 45 0 10 -11 50 -25 88 -13 39
-25 86 -25 105 0 19 -16 71 -35 115 -19 44 -35 93 -35 110 0 16 -11 53 -24 80
-12 28 -32 91 -44 140 -12 50 -37 158 -57 240 -19 83 -47 188 -62 235 -14 47
-30 112 -35 145 -16 99 -58 245 -93 320 -18 38 -36 85 -40 103 -8 37 -61 82
-135 114 -25 10 -54 24 -64 30 -11 6 -43 10 -71 9 -40 -1 -56 4 -70 19 -11 12
-31 20 -51 20 -18 0 -45 5 -60 11 -16 5 -56 11 -90 12 -34 2 -68 8 -76 14 -16
14 -235 22 -260 9 -14 -6 -20 -2 -28 18 -9 26 -11 26 -122 28 -143 2 -178 4
-204 13 -16 5 -25 0 -38 -19 -20 -32 -33 -32 -63 -4 -20 19 -33 22 -81 19 -31
-2 -66 -3 -77 -2 -93 6 -229 0 -241 -10 -11 -9 -20 -9 -39 1 -19 10 -27 10
-39 1 -11 -9 -20 -10 -36 -1 -14 8 -48 9 -103 4 -45 -4 -100 -6 -122 -4 -75 4
-100 2 -163 -15 -53 -15 -67 -16 -87 -5 -22 12 -28 11 -48 -8 -29 -27 -39 -27
-62 -2 -21 24 -53 26 -61 5 -7 -18 -27 -19 -54 -3 -15 9 -24 9 -43 -1 -18 -10
-30 -10 -44 -2 -13 6 -39 7 -71 2 -32 -5 -57 -4 -69 3 -10 6 -40 11 -68 12
-27 1 -97 4 -155 8 -58 4 -114 7 -125 6 -72 -8 -271 1 -340 16 -44 9 -90 16
-102 15 -13 0 -33 0 -45 0 -212 6 -276 8 -345 7 -131 0 -201 1 -313 6 -70 4
-113 1 -128 -7 -19 -9 -33 -8 -70 5 -33 12 -51 14 -65 6 -13 -7 -32 -6 -62 1
-47 12 -108 15 -117 5z m4110 -261 c-5 -26 -38 -29 -38 -4 0 15 6 21 21 21 14
0 19 -5 17 -17z m-3541 -73 c-6 -47 -31 -90 -52 -90 -14 0 -14 2 17 93 18 52
42 50 35 -3z m3894 -112 c18 -34 -3 -40 -54 -18 -66 29 -65 48 3 42 28 -3 44
-10 51 -24z m-4884 -56 c-16 -15 -19 -15 -27 -2 -7 11 -5 19 7 28 25 18 42 -3
20 -26z m5088 8 c17 -33 18 -40 7 -40 -9 0 -32 44 -32 60 0 18 9 10 25 -20z
m-5605 -108 c0 -5 -6 -16 -13 -27 -10 -13 -16 -15 -21 -6 -4 6 -2 18 4 26 13
16 30 20 30 7z m65 -32 c0 -8 -8 -16 -17 -18 -13 -2 -18 3 -18 18 0 15 5 20
18 18 9 -2 17 -10 17 -18z m5375 -47 c7 -32 16 -74 21 -93 5 -19 9 -48 9 -65
0 -16 7 -43 16 -60 9 -16 22 -61 30 -100 7 -38 16 -82 20 -97 5 -21 3 -28 -9
-28 -23 0 -35 21 -52 91 -29 115 -32 124 -44 147 -8 15 -9 28 -2 39 6 12 5 26
-3 43 -14 27 -29 173 -19 183 12 12 20 -3 33 -60z m-3670 37 c0 -21 -44 -76
-85 -108 -23 -17 -58 -48 -78 -67 -40 -39 -57 -44 -57 -17 0 17 112 122 130
122 4 0 19 18 34 40 24 37 56 54 56 30z m1878 -32 c-2 -13 -10 -23 -18 -23 -8
0 -16 10 -18 23 -3 17 2 22 18 22 16 0 21 -5 18 -22z m-226 -70 c-16 -16 -37
4 -28 28 6 16 8 16 23 1 13 -13 15 -19 5 -29z m-1352 8 c0 -33 -20 -64 -47
-73 -60 -21 -73 19 -20 61 35 28 67 34 67 12z m910 -15 c0 -5 -7 -12 -16 -15
-22 -9 -24 -8 -24 9 0 8 9 15 20 15 11 0 20 -4 20 -9z m-2540 -16 c0 -8 -7
-15 -15 -15 -8 0 -15 7 -15 15 0 8 7 15 15 15 8 0 15 -7 15 -15z m2810 11 c0
-3 -4 -8 -10 -11 -5 -3 -10 -1 -10 4 0 6 5 11 10 11 6 0 10 -2 10 -4z m-2110
-30 c0 -17 -80 -96 -97 -96 -24 0 -13 24 29 67 43 44 68 54 68 29z m-1220 -5
c0 -23 -14 -41 -30 -41 -29 0 -33 17 -8 34 25 18 38 20 38 7z m3285 -20 c3 -6
-7 -25 -23 -43 -15 -18 -36 -45 -45 -60 -9 -15 -26 -32 -38 -39 -39 -21 -12
50 39 104 48 49 57 54 67 38z m-1061 -10 c3 -5 0 -14 -8 -20 -10 -9 -15 -8
-19 3 -9 22 15 37 27 17z m870 -24 c-7 -20 -29 -22 -40 -5 -9 14 27 41 38 30
5 -5 6 -16 2 -25z m-3694 3 c0 -11 -7 -20 -15 -20 -8 0 -15 9 -15 20 0 11 7
20 15 20 8 0 15 -9 15 -20z m6375 -31 c12 -44 10 -69 -5 -69 -8 0 -30 77 -30
105 0 33 24 8 35 -36z m-3021 -41 c-55 -70 -134 -120 -134 -85 1 17 59 78 101
104 41 26 60 15 33 -19z m-584 -7 c0 -11 -9 -23 -21 -26 -27 -9 -33 -1 -19 24
14 26 40 27 40 2z m-1800 -16 c10 -12 9 -16 -5 -21 -19 -8 -40 9 -31 25 10 15
21 14 36 -4z m60 -16 c0 -20 -24 -26 -35 -9 -8 13 14 42 26 34 5 -3 9 -14 9
-25z m-563 6 c7 -20 -2 -29 -21 -22 -9 4 -13 13 -10 22 8 19 23 19 31 0z m273
-9 c0 -8 -4 -17 -9 -21 -12 -7 -24 12 -16 25 9 15 25 12 25 -4z m5200 1 c0
-19 -10 -27 -26 -20 -21 8 -17 33 6 33 11 0 20 -6 20 -13z m-3940 -17 c0 -5
-4 -10 -10 -10 -5 0 -10 5 -10 10 0 6 5 10 10 10 6 0 10 -4 10 -10z m4400 -31
c0 -21 -16 -26 -23 -6 -6 17 3 38 14 31 5 -3 9 -14 9 -25z m-2687 -15 c3 -4 1
-16 -4 -27 -15 -27 -89 -107 -100 -107 -22 0 -5 36 39 85 48 55 54 60 65 49z
m827 -43 c0 -25 -27 -48 -41 -34 -8 8 -7 17 0 32 14 26 41 28 41 2z m-2180
-39 c0 -9 -9 -25 -19 -37 -98 -102 -122 -125 -131 -120 -18 11 -11 23 40 71
28 26 53 58 56 71 10 40 54 52 54 15z m-2290 -102 c0 -32 -22 -50 -64 -50 -33
0 -33 17 1 52 36 38 63 37 63 -2z m480 19 c0 -20 -21 -49 -35 -49 -20 0 -19
19 2 42 18 20 33 24 33 7z m1507 -21 c-3 -8 -6 -5 -6 6 -1 11 2 17 5 13 3 -3
4 -12 1 -19z m1503 -8 c0 -5 -5 -10 -11 -10 -5 0 -7 5 -4 10 3 6 8 10 11 10 2
0 4 -4 4 -10z m2675 -56 c0 -28 -4 -39 -15 -39 -16 0 -26 45 -16 72 11 28 31
7 31 -33z m-2715 -23 c0 -21 -13 -41 -26 -41 -14 0 -19 31 -7 43 10 10 33 8
33 -2z m-3560 -61 c0 -11 -7 -20 -15 -20 -8 0 -15 9 -15 20 0 11 7 20 15 20 8
0 15 -9 15 -20z m2200 0 c0 -25 -47 -57 -62 -42 -7 7 -3 18 17 36 33 31 45 33
45 6z m-3630 -35 c0 -17 -27 -38 -40 -30 -14 9 -13 42 3 48 18 6 37 -3 37 -18z
m3390 -30 c0 -34 -29 -85 -57 -98 -15 -6 -34 -33 -51 -69 -17 -38 -32 -57 -42
-56 -21 4 -25 45 -6 64 9 8 16 27 16 41 0 16 16 44 40 72 22 25 47 54 55 63
19 22 45 13 45 -17z m2317 -74 c-15 -23 -31 -41 -36 -41 -9 0 -21 47 -21 81 0
9 7 25 16 34 16 15 19 15 42 -9 l25 -25 -26 -40z m-3047 54 c0 -17 -35 -55
-51 -55 -20 0 -4 45 21 57 31 16 30 16 30 -2z m3964 -21 c11 -29 7 -64 -9 -64
-19 0 -49 46 -41 65 7 20 42 19 50 -1z m-5474 -29 c0 -18 -5 -25 -20 -25 -20
0 -28 28 -13 43 15 16 33 6 33 -18z m6610 4 c0 -25 -33 -22 -38 4 -2 12 3 17
17 17 15 0 21 -6 21 -21z m-4240 2 c0 -16 -51 -71 -66 -71 -23 0 -16 20 17 51
32 29 49 36 49 20z m-936 -82 c-37 -41 -48 -9 -11 37 22 29 22 29 25 6 2 -13
-4 -32 -14 -43z m-2704 37 c0 -20 -26 -40 -35 -26 -10 16 2 40 20 40 8 0 15
-6 15 -14z m270 -35 c0 -26 -59 -76 -73 -62 -8 8 -1 21 23 46 38 40 50 43 50
16z m3056 4 c9 -23 -5 -65 -21 -65 -10 0 -15 11 -15 33 0 19 3 37 7 40 11 11
23 8 29 -8z m3764 -16 c0 -10 -2 -19 -4 -19 -2 0 -11 -3 -20 -6 -12 -5 -16 0
-16 18 0 14 3 27 6 31 11 11 34 -5 34 -24z m-2808 -14 c0 -5 -5 -11 -11 -13
-6 -2 -11 4 -11 13 0 9 5 15 11 13 6 -2 11 -8 11 -13z m1426 -7 c19 -19 14
-41 -14 -71 -19 -21 -29 -26 -37 -18 -9 9 -8 17 1 31 6 11 12 28 12 38 0 32
17 41 38 20z m-68 -38 c0 -5 -4 -10 -10 -10 -5 0 -10 5 -10 10 0 6 5 10 10 10
6 0 10 -4 10 -10z m-5820 -20 c0 -5 -4 -10 -10 -10 -5 0 -10 5 -10 10 0 6 5
10 10 10 6 0 10 -4 10 -10z m3690 -9 c0 -5 -7 -14 -15 -21 -12 -10 -15 -10
-15 2 0 8 3 18 7 21 9 10 23 9 23 -2z m4430 -45 c0 -6 -5 -18 -10 -26 -8 -13
-11 -13 -26 2 -14 14 -15 20 -5 32 13 16 41 11 41 -8z m-6332 -34 c3 -17 -2
-22 -17 -22 -14 0 -21 6 -21 18 0 38 33 41 38 4z m567 8 c7 -12 -12 -40 -26
-40 -10 0 -12 34 -2 43 9 10 21 9 28 -3z m3409 -92 c19 -27 21 -54 4 -64 -14
-9 -58 43 -58 69 0 25 36 22 54 -5z m-4714 -18 c0 -29 -29 -82 -42 -78 -24 8
-27 45 -5 72 25 31 47 34 47 6z m3250 -29 c0 -22 -25 -45 -40 -36 -11 7 -14
38 -3 48 14 15 43 7 43 -12z m1255 -10 c3 -5 1 -12 -5 -16 -5 -3 -10 1 -10 9
0 18 6 21 15 7z m-1835 -27 c18 -21 1 -69 -24 -69 -25 0 -43 49 -26 70 16 19
34 19 50 -1z m-1490 -11 c-1 -28 -34 -66 -56 -61 -33 6 -28 41 8 59 44 22 48
22 48 2z m5420 8 c0 -6 -4 -13 -10 -16 -5 -3 -10 1 -10 9 0 9 5 16 10 16 6 0
10 -4 10 -9z m-5970 -19 c0 -21 -18 -42 -37 -42 -20 0 -27 28 -13 45 18 21 50
19 50 -3z m4000 -37 c0 -26 -29 -75 -44 -75 -16 0 -37 52 -27 67 15 24 71 30
71 8z m-5465 -45 c-5 -8 -11 -8 -17 -2 -6 6 -7 16 -3 22 5 8 11 8 17 2 6 -6 7
-16 3 -22z m7955 10 c0 -5 -7 -10 -15 -10 -8 0 -15 5 -15 10 0 6 7 10 15 10 8
0 15 -4 15 -10z m-2150 -19 c0 -11 -5 -23 -11 -27 -15 -9 -33 12 -26 30 9 23
37 20 37 -3z m-1852 -43 c-5 -15 -35 -34 -43 -27 -3 4 -3 14 1 23 7 18 48 23
42 4z m1358 -37 c27 -41 29 -86 5 -86 -11 0 -50 88 -51 118 0 19 22 3 46 -32z
m-5456 5 c0 -8 -7 -22 -16 -31 -22 -22 -40 -5 -25 24 13 24 41 28 41 7z m5883
-41 c17 -45 17 -49 1 -64 -13 -13 -17 -14 -21 -2 -3 7 -14 22 -24 32 -22 22
-24 41 -8 70 15 30 32 18 52 -36z m-4633 21 c0 -8 -5 -18 -11 -22 -14 -8 -33
11 -25 25 10 16 36 13 36 -3z m5485 -21 c0 -23 -5 -31 -21 -33 -24 -3 -38 20
-28 50 4 13 13 18 27 16 17 -2 22 -10 22 -33z m-4727 3 c3 -17 -35 -88 -47
-88 -15 0 -28 45 -20 67 14 39 61 53 67 21z m3280 5 c-4 -22 -22 -20 -26 1 -2
10 3 16 13 16 10 0 15 -7 13 -17z m-1794 -26 c9 -15 7 -22 -13 -38 -29 -24
-64 -21 -69 5 -4 21 34 57 57 53 8 -1 19 -10 25 -20z m2606 -35 c0 -21 -18
-42 -37 -42 -19 0 -16 37 5 49 25 15 32 13 32 -7z m-6610 -5 c0 -6 -5 -28 -11
-47 -6 -19 -10 -50 -10 -67 1 -22 -3 -33 -13 -33 -19 0 -19 95 0 133 15 28 34
36 34 14z m8228 -25 c2 -7 -3 -12 -12 -12 -9 0 -16 7 -16 16 0 17 22 14 28 -4z
m-6963 -12 c9 -14 -17 -50 -37 -50 -26 0 -32 19 -12 41 19 21 39 25 49 9z
m-235 -18 c0 -21 -18 -42 -37 -42 -20 0 -27 28 -13 45 18 21 50 19 50 -3z
m-590 -18 c0 -16 -23 -44 -35 -44 -18 0 -20 21 -3 38 12 12 38 17 38 6z m5858
-23 c9 -63 -24 -92 -53 -47 -13 19 -14 28 -4 50 16 34 52 32 57 -3z m-4408 -1
c0 -14 -50 -93 -64 -102 -19 -12 -28 9 -16 33 15 29 61 79 72 79 4 0 8 -5 8
-10z m4010 -4 c0 -20 -19 -31 -32 -18 -6 6 -7 15 -4 21 10 16 36 13 36 -3z
m594 -12 c20 -8 21 -38 1 -54 -22 -18 -39 1 -31 34 7 28 7 29 30 20z m-4104
-35 c0 -12 -49 -79 -70 -96 -17 -13 -30 -8 -30 11 0 19 80 107 91 100 5 -3 9
-10 9 -15z m5877 0 c14 -14 6 -39 -12 -39 -18 0 -28 17 -21 35 6 18 18 19 33
4z m-6680 -35 c3 -8 1 -20 -5 -26 -15 -15 -43 8 -35 28 7 19 32 18 40 -2z
m478 -44 c0 -18 -6 -26 -22 -28 -18 -3 -23 1 -23 21 0 28 9 39 30 35 9 -2 15
-14 15 -28z m6005 26 c0 -3 -4 -8 -10 -11 -5 -3 -10 -1 -10 4 0 6 5 11 10 11
6 0 10 -2 10 -4z m-1329 -19 c-1 -12 -15 -9 -19 4 -3 6 1 10 8 8 6 -3 11 -8
11 -12z m259 -7 c0 -11 -6 -20 -14 -20 -18 0 -29 16 -21 30 11 18 35 11 35
-10z m-6648 -31 c-1 -13 -14 -51 -29 -84 -15 -33 -30 -85 -33 -115 -4 -42 -9
-56 -22 -58 -14 -3 -18 3 -18 27 0 25 37 148 71 239 11 30 35 23 31 -9z m-427
-68 c-7 -42 -25 -57 -25 -22 0 26 19 75 26 68 3 -3 3 -24 -1 -46z m4945 31 c0
-13 -12 -22 -22 -16 -10 6 -1 24 13 24 5 0 9 -4 9 -8z m4209 -16 c16 -19 26
-86 13 -86 -11 0 -42 61 -42 84 0 20 14 21 29 2z m-744 -36 c3 -5 -1 -10 -9
-10 -9 0 -16 5 -16 10 0 6 4 10 9 10 6 0 13 -4 16 -10z m-8246 -63 c-5 -17 -9
-33 -9 -35 0 -2 -5 0 -10 3 -9 6 -5 47 7 68 11 20 20 -7 12 -36z m6771 28 c0
-16 -27 -32 -37 -22 -3 4 -3 13 0 22 8 20 37 20 37 0z m1268 -12 c5 -17 -26
-29 -40 -15 -6 6 -7 15 -3 22 9 14 37 9 43 -7z m-3379 -29 c25 -31 26 -47 7
-63 -11 -9 -23 -7 -55 10 -46 24 -51 40 -18 62 31 22 43 21 66 -9z m1566 6 c7
-12 -12 -40 -26 -40 -10 0 -12 34 -2 43 9 10 21 9 28 -3z m-4155 -4 c0 -3 -4
-8 -10 -11 -5 -3 -10 -1 -10 4 0 6 5 11 10 11 6 0 10 -2 10 -4z m366 -27 c3
-6 -5 -23 -20 -37 -19 -20 -29 -23 -37 -15 -9 9 -8 18 5 37 17 27 40 34 52 15z
m1832 -16 c-4 -34 -40 -43 -69 -17 -33 29 -24 44 27 44 44 0 45 -1 42 -27z
m4775 -18 c4 -22 10 -53 11 -70 2 -16 11 -46 19 -66 14 -31 14 -39 2 -55 -7
-11 -15 -17 -17 -14 -11 14 -31 100 -33 140 -1 24 -8 46 -14 48 -6 2 -11 17
-11 34 0 46 33 33 43 -17z m-9072 -98 c-6 -16 -11 -42 -11 -57 0 -27 -24 -58
-33 -43 -4 7 36 208 44 223 9 16 8 -98 0 -123z m6497 90 c4 -20 -25 -34 -40
-19 -15 15 -1 44 19 40 10 -2 19 -11 21 -21z m-6668 -23 c0 -16 -16 -19 -25
-4 -8 13 4 32 16 25 5 -4 9 -13 9 -21z m8704 10 c23 -9 21 -54 -3 -54 -21 0
-33 22 -25 45 7 17 7 17 28 9z m-8344 -48 c0 -14 -8 -32 -17 -41 -16 -16 -17
-16 -25 5 -9 25 6 60 27 60 9 0 15 -10 15 -24z m8160 -11 c0 -8 -7 -15 -15
-15 -8 0 -15 7 -15 15 0 8 7 15 15 15 8 0 15 -7 15 -15z m-8550 -49 c0 -33
-17 -76 -30 -76 -13 0 -13 15 1 63 11 42 29 50 29 13z m6598 -7 c-3 -23 -33
-48 -44 -37 -3 4 -4 19 0 33 8 33 49 36 44 4z m582 -44 c0 -8 -7 -15 -15 -15
-9 0 -12 6 -9 15 4 8 10 15 15 15 5 0 9 -7 9 -15z m-2495 -25 c8 -14 -13 -50
-30 -50 -21 0 -27 17 -15 40 11 21 35 27 45 10z m2173 -32 c-2 -15 -11 -24
-25 -26 -25 -4 -31 16 -11 36 20 20 40 14 36 -10z m1952 -23 c0 -8 -7 -15 -15
-15 -16 0 -20 12 -8 23 11 12 23 8 23 -8z m-1125 -16 c0 -7 -8 -15 -17 -17
-18 -3 -25 18 -11 32 10 10 28 1 28 -15z m-1715 -23 c-14 -14 -24 0 -16 21 6
15 8 15 16 3 6 -9 5 -19 0 -24z m1347 -42 c7 -20 -22 -45 -43 -37 -14 5 -19
35 -7 46 12 13 44 7 50 -9z m-4014 -21 c8 -14 -12 -53 -28 -53 -15 0 -22 40
-8 53 9 9 31 9 36 0z m5567 -19 c0 -17 -22 -14 -28 4 -2 7 3 12 12 12 9 0 16
-7 16 -16z m-8500 -39 c0 -14 -4 -25 -10 -25 -5 0 -16 -13 -25 -30 -17 -33
-45 -40 -45 -12 0 19 58 92 73 92 4 0 7 -11 7 -25z m7588 2 c4 -19 -20 -32
-43 -23 -13 5 -14 10 -5 26 13 25 43 23 48 -3z m-1314 -73 c8 -20 -11 -54 -29
-54 -10 0 -15 11 -15 35 0 28 4 35 19 35 10 0 22 -7 25 -16z m824 -29 c20 -43
15 -57 -15 -53 -24 3 -28 8 -31 41 -3 31 0 37 16 37 10 0 24 -11 30 -25z
m-7202 -71 c-9 -13 -21 -24 -27 -24 -13 0 -3 35 20 70 l16 24 3 -22 c2 -13 -4
-34 -12 -48z m1874 46 c0 -5 -5 -10 -11 -10 -5 0 -7 5 -4 10 3 6 8 10 11 10 2
0 4 -4 4 -10z m5715 0 c3 -5 4 -14 0 -20 -8 -13 -35 -1 -35 16 0 16 26 19 35
4z m1095 -29 c14 -28 12 -58 -5 -65 -21 -8 -45 21 -45 55 0 22 5 29 20 29 10
0 24 -9 30 -19z m-5809 -46 c-1 -15 -24 -12 -29 3 -3 9 2 13 12 10 10 -1 17
-7 17 -13z m3097 -51 c-2 -10 -11 -20 -21 -22 -12 -3 -17 3 -17 21 0 26 18 41
33 27 5 -4 7 -16 5 -26z m1502 15 c0 -6 -4 -7 -10 -4 -5 3 -10 11 -10 16 0 6
5 7 10 4 6 -3 10 -11 10 -16z m-372 -13 c3 -13 -1 -17 -14 -14 -11 2 -20 11
-22 22 -3 13 1 17 14 14 11 -2 20 -11 22 -22z m-588 -31 c0 -16 -6 -25 -15
-25 -9 0 -15 9 -15 25 0 16 6 25 15 25 9 0 15 -9 15 -25z m-6915 -67 c-15 -91
-25 -155 -31 -205 -6 -49 -27 -84 -41 -70 -6 6 -1 37 34 212 20 103 20 105 34
105 8 0 9 -13 4 -42z m7400 -8 c0 -27 -22 -39 -31 -16 -8 22 3 49 19 43 6 -2
12 -14 12 -27z m395 9 c13 -24 -2 -49 -30 -49 -25 0 -31 24 -14 49 19 26 30
27 44 0z m-6022 -21 c-4 -29 -38 -38 -38 -10 0 22 8 32 27 32 9 0 13 -8 11
-22z m7780 5 c-4 -22 -22 -20 -26 1 -2 10 3 16 13 16 10 0 15 -7 13 -17z
m-7478 -37 c0 -3 -4 -8 -10 -11 -5 -3 -10 -1 -10 4 0 6 5 11 10 11 6 0 10 -2
10 -4z m4460 -18 c0 -15 -30 -68 -38 -68 -15 0 -32 24 -32 45 0 13 9 26 23 32
24 11 47 7 47 -9z m510 -13 c16 -19 9 -49 -12 -53 -20 -4 -40 30 -32 52 8 20
28 21 44 1z m2125 -29 c19 -29 24 -77 9 -83 -21 -7 -44 28 -44 68 0 44 12 50
35 15z m-1666 1 c13 -16 5 -27 -21 -27 -18 0 -25 20 -11 33 10 10 19 8 32 -6z
m-2821 -34 c-4 -32 -38 -46 -38 -16 0 20 18 43 33 43 4 0 7 -12 5 -27z m2612
2 c0 -25 -23 -35 -35 -15 -10 16 2 40 20 40 9 0 15 -9 15 -25z m383 10 c1 -5
-6 -11 -15 -13 -11 -2 -18 3 -18 13 0 17 30 18 33 0z m-5735 -78 c2 -10 -3
-17 -12 -17 -10 0 -16 9 -16 21 0 24 23 21 28 -4z m4462 -17 c12 -7 12 -12 1
-34 -16 -29 -41 -42 -52 -25 -8 13 -2 36 14 57 11 14 17 15 37 2z m1198 -13
c4 -17 -33 -41 -48 -32 -14 9 -12 21 6 40 19 19 38 15 42 -8z m-918 -9 c0 -22
-46 -72 -58 -64 -7 4 -12 23 -12 42 0 32 2 34 35 34 21 0 35 -5 35 -12z m700
-8 c0 -11 -4 -20 -9 -20 -14 0 -23 18 -16 30 10 17 25 11 25 -10z m-195 0 c8
-13 -13 -40 -31 -40 -14 0 -19 31 -7 43 10 10 31 8 38 -3z m-4295 -56 c0 -13
-42 -74 -50 -74 -22 0 -20 24 6 51 26 27 44 37 44 23z m430 -34 c0 -5 -4 -10
-10 -10 -5 0 -10 5 -10 10 0 6 5 10 10 10 6 0 10 -4 10 -10z m4165 -21 c0 -7
-8 -15 -17 -17 -18 -3 -25 18 -11 32 10 10 28 1 28 -15z m-925 -46 c0 -20 -28
-53 -47 -53 -18 0 -16 30 4 52 20 23 43 23 43 1z m-290 -36 c0 -19 -29 -57
-45 -57 -23 0 -28 19 -11 45 17 26 56 34 56 12z m-260 -15 c0 -26 -25 -56 -38
-48 -9 5 -8 15 3 37 17 33 35 38 35 11z m-3878 -48 c-5 -34 -11 -44 -27 -44
-18 0 -20 41 -3 58 17 17 34 9 30 -14z m5263 16 c8 -14 -13 -50 -30 -50 -18 0
-25 21 -13 43 10 19 33 23 43 7z m-4755 -103 c0 -23 -46 -77 -67 -77 -21 0
-15 23 18 68 32 43 49 47 49 9z m4308 -19 c-4 -29 -38 -38 -38 -10 0 22 8 32
27 32 9 0 13 -8 11 -22z m-2648 -13 c0 -8 -7 -15 -15 -15 -8 0 -15 7 -15 15 0
8 7 15 15 15 8 0 15 -7 15 -15z m4785 -76 c8 -25 1 -34 -20 -26 -19 8 -20 47
-1 47 8 0 18 -9 21 -21z m-6325 -19 c0 -31 -28 -80 -46 -80 -27 0 -26 28 1 65
31 40 45 44 45 15z m2420 -10 c0 -11 -7 -20 -15 -20 -8 0 -15 9 -15 20 0 11 7
20 15 20 8 0 15 -9 15 -20z m-3205 0 c10 -16 -23 -60 -45 -60 -29 0 -32 15 -9
44 21 27 43 33 54 16z m535 -54 c0 -16 -18 -31 -27 -22 -8 8 5 36 17 36 5 0
10 -6 10 -14z m1016 -30 c-7 -11 -18 -22 -24 -24 -17 -5 -15 20 4 47 13 18 18
20 25 10 5 -8 3 -22 -5 -33z m5610 36 c11 -7 34 -45 34 -56 0 -12 -24 -6 -42
11 -29 26 -23 66 8 45z m-4918 -49 c-16 -34 -58 -45 -58 -15 0 23 51 65 64 52
4 -4 2 -21 -6 -37z m-1758 -31 c0 -21 -18 -42 -37 -42 -18 0 -16 20 4 42 21
23 33 23 33 0z m4317 -46 c-9 -23 -37 -20 -37 3 0 21 20 33 34 20 5 -4 6 -15
3 -23z m2433 8 c0 -9 -5 -14 -12 -12 -18 6 -21 28 -4 28 9 0 16 -7 16 -16z
m-792 -31 c-2 -17 -10 -29 -20 -31 -14 -3 -18 3 -18 27 0 25 4 31 21 31 16 0
20 -5 17 -27z m-4268 -13 c0 -32 -19 -70 -35 -70 -17 0 -20 35 -5 74 11 29 40
26 40 -4z m-2320 -1 c0 -5 -7 -9 -15 -9 -15 0 -20 12 -9 23 8 8 24 -1 24 -14z
m1820 2 c0 -10 -7 -21 -15 -25 -11 -4 -15 1 -15 19 0 16 6 25 15 25 8 0 15 -9
15 -19z m670 4 c0 -8 -7 -15 -15 -15 -16 0 -20 12 -8 23 11 12 23 8 23 -8z
m1898 -17 c-4 -37 -22 -47 -37 -19 -14 26 -4 51 21 51 16 0 19 -6 16 -32z
m-2748 -2 c0 -8 -5 -18 -11 -22 -14 -8 -33 11 -25 25 10 16 36 13 36 -3z
m5792 -3 c18 -21 33 -63 22 -63 -16 0 -54 44 -54 62 0 23 12 23 32 1z m-6672
-59 c-14 -26 -47 -50 -57 -41 -8 9 6 42 28 66 29 31 49 13 29 -25z m350 35 c0
-20 -21 -49 -35 -49 -15 0 -21 40 -8 53 10 11 43 8 43 -4z m3760 -3 c0 -20
-19 -31 -32 -18 -6 6 -7 15 -4 21 10 16 36 13 36 -3z m-4325 -16 c9 -14 -13
-50 -30 -50 -18 0 -20 31 -3 48 15 15 25 15 33 2z m5171 -41 c9 -15 -11 -33
-30 -26 -9 4 -13 13 -10 22 7 17 30 20 40 4z m178 -4 c3 -9 -1 -18 -10 -22
-19 -7 -28 2 -21 22 8 19 23 19 31 0z m1921 -30 c0 -28 -29 -25 -33 3 -3 19 0
23 15 20 10 -2 18 -12 18 -23z m-8465 -19 c0 -16 -28 -42 -36 -33 -3 3 -3 15
1 26 7 23 35 29 35 7z m8170 -7 c0 -5 -4 -9 -10 -9 -5 0 -10 7 -10 16 0 8 5
12 10 9 6 -3 10 -10 10 -16z m-6490 -9 c0 -24 -26 -38 -42 -22 -16 16 -2 42
22 42 13 0 20 -7 20 -20z m174 -1 c-3 -5 -10 -7 -15 -3 -5 3 -7 10 -3 15 3 5
10 7 15 3 5 -3 7 -10 3 -15z m6641 -49 c10 -11 20 -42 23 -71 4 -46 3 -51 -14
-47 -13 3 -18 11 -17 26 2 13 -4 39 -12 59 -24 57 -15 72 20 33z m-288 -12
c-3 -8 -6 -5 -6 6 -1 11 2 17 5 13 3 -3 4 -12 1 -19z m-9047 -88 c0 -18 -30
-70 -40 -70 -15 0 -12 14 8 49 17 31 32 40 32 21z m4960 -216 c0 -17 -36 -19
-46 -3 -8 14 14 29 33 22 7 -3 13 -11 13 -19z m87 1 c3 -9 3 -19 -1 -22 -8 -9
-56 14 -56 27 0 16 50 12 57 -5z m98 -10 c0 -13 -8 -21 -22 -23 -19 -3 -23 1
-23 23 0 22 4 26 23 23 14 -2 22 -10 22 -23z m6701 8 c11 -12 13 -18 5 -21
-19 -6 -41 6 -41 23 0 20 14 19 36 -2z m-8542 -9 c18 -7 22 -44 4 -44 -14 0
-48 30 -48 42 0 9 22 11 44 2z m106 -39 c-14 -17 -30 -11 -30 10 0 15 33 26
38 13 2 -5 -2 -15 -8 -23z m8184 6 c3 -5 -1 -14 -8 -20 -16 -13 -32 2 -21 19
8 12 22 13 29 1z m396 -122 c13 -23 -5 -36 -25 -19 -20 17 -20 51 0 44 9 -4
20 -15 25 -25z m-10000 -258 c25 -8 25 -8 -7 -15 -33 -8 -53 -2 -53 15 0 10
24 10 60 0z m10130 -112 c0 -6 -4 -7 -10 -4 -5 3 -10 11 -10 16 0 6 5 7 10 4
6 -3 10 -11 10 -16z m-14100 -149 c0 -5 -2 -10 -4 -10 -3 0 -8 5 -11 10 -3 6
-1 10 4 10 6 0 11 -4 11 -10z m3150 -21 c0 -5 -4 -9 -10 -9 -5 0 -10 7 -10 16
0 8 5 12 10 9 6 -3 10 -10 10 -16z m8370 -29 c0 -5 -4 -10 -10 -10 -5 0 -10 5
-10 10 0 6 5 10 10 10 6 0 10 -4 10 -10z m-1750 -35 c0 -8 -9 -15 -20 -15 -22
0 -27 15 -7 23 21 9 27 7 27 -8z m893 -29 c16 -12 16 -14 1 -20 -24 -9 -65 -7
-109 6 l-40 12 50 7 c77 9 79 9 98 -5z m2757 4 c0 -5 -7 -10 -15 -10 -8 0 -15
5 -15 10 0 6 7 10 15 10 8 0 15 -4 15 -10z m-3870 -125 c0 -8 -4 -15 -9 -15
-13 0 -22 16 -14 24 11 11 23 6 23 -9z m387 -6 c7 -7 17 -8 30 -1 19 11 86 10
113 0 20 -8 229 -19 421 -23 86 -1 162 -5 168 -9 7 -4 68 -9 136 -11 89 -3
132 -8 155 -20 34 -18 119 -37 161 -36 25 0 27 -3 32 -57 3 -31 12 -111 21
-177 l16 -119 -26 -24 c-23 -22 -25 -30 -19 -71 3 -25 10 -60 16 -77 5 -16 11
-71 12 -120 2 -50 6 -95 10 -101 10 -16 29 -169 32 -248 1 -38 5 -123 9 -188
4 -76 3 -131 -4 -158 -8 -30 -8 -45 -1 -52 14 -14 14 -54 0 -63 -18 -11 -26
14 -27 86 0 93 -11 150 -29 157 -24 9 -33 -17 -34 -102 0 -44 -5 -120 -11
-170 -5 -49 -11 -117 -12 -150 -1 -33 -6 -67 -11 -75 -5 -8 -10 -37 -11 -65
-2 -27 -6 -73 -10 -102 -6 -50 -5 -53 26 -81 l32 -30 -18 -26 c-15 -21 -24
-25 -44 -20 -54 14 -310 21 -329 10 -10 -7 -152 -8 -436 -4 -183 2 -420 -9
-443 -21 -17 -9 -27 -9 -43 0 -17 9 -29 7 -60 -6 -26 -12 -50 -16 -75 -12 -21
4 -114 0 -208 -7 -94 -8 -209 -15 -256 -15 -47 -1 -101 -6 -121 -11 -19 -5
-91 -12 -160 -14 -68 -3 -140 -10 -159 -16 -19 -6 -98 -13 -174 -16 -77 -3
-146 -9 -155 -13 -9 -5 -113 -14 -231 -20 -118 -7 -229 -17 -246 -22 -18 -5
-54 -9 -80 -8 -50 1 -262 -17 -299 -25 -73 -18 -541 -24 -755 -10 -47 3 -116
6 -155 8 -38 1 -82 7 -97 14 -17 7 -37 8 -56 2 -31 -8 -188 -5 -233 6 -15 3
-78 -2 -140 -12 -142 -22 -265 -26 -280 -7 -15 18 -44 16 -86 -3 -28 -14 -38
-15 -57 -4 -14 7 -33 9 -47 4 -13 -4 -51 -6 -84 -4 -121 7 -221 6 -277 -3 -38
-6 -62 -6 -70 1 -9 6 -35 7 -77 1 -38 -5 -78 -5 -100 0 -31 8 -106 12 -211 12
-14 0 -52 -2 -85 -5 -33 -3 -75 -1 -93 5 -17 6 -112 13 -210 15 -97 2 -204 6
-237 9 -51 4 -138 8 -325 15 -19 0 -98 -1 -175 -3 -77 -2 -153 1 -170 5 -16 4
-96 10 -177 13 -81 2 -150 5 -155 6 -4 2 -24 -1 -43 -5 -29 -5 -440 -19 -490
-16 -69 5 -330 19 -347 20 -13 0 -34 0 -48 0 -14 0 -33 0 -42 0 -59 0 -416
-11 -458 -14 -66 -6 -125 -20 -152 -35 -16 -8 -29 -9 -41 -2 -16 9 -19 24 -19
113 -1 57 -8 135 -17 173 -8 39 -18 88 -20 110 -3 22 -12 76 -21 120 -9 44
-18 103 -20 130 -1 28 -8 127 -15 220 -12 166 -6 667 8 690 3 5 7 62 9 125 2
63 5 133 7 155 11 114 29 235 41 277 11 37 11 50 1 63 -12 16 -13 16 -29 0 -9
-9 -17 -24 -17 -33 0 -10 -7 -28 -16 -40 -10 -15 -13 -32 -9 -52 4 -18 3 -30
-4 -30 -25 0 -24 18 12 200 l12 65 97 -1 c59 -1 115 -8 146 -18 78 -26 337
-34 562 -17 63 5 118 7 121 5 4 -2 90 -6 192 -9 102 -3 228 -8 279 -11 97 -6
267 -12 378 -13 36 0 90 -5 120 -12 30 -6 152 -13 270 -14 327 -5 494 -14 568
-29 75 -16 183 -24 477 -32 198 -6 328 -11 415 -16 25 -1 83 -1 130 1 47 1
128 -2 180 -8 80 -9 376 -22 460 -21 13 0 29 5 34 10 6 6 25 10 42 10 18 0 59
14 91 30 49 26 68 30 128 30 130 -2 280 5 294 14 8 5 57 8 110 7 121 -3 453
-5 506 -3 22 1 51 1 65 0 14 0 39 0 55 1 38 2 113 -11 192 -34 51 -15 68 -16
88 -7 14 7 36 12 49 12 13 0 39 6 57 14 28 12 196 36 249 37 8 0 47 5 85 10
50 8 82 8 109 1 30 -9 44 -8 72 5 32 16 36 15 82 -6 47 -22 51 -22 113 -8 98
24 110 25 221 16 196 -15 320 -18 343 -7 17 8 31 5 61 -10 30 -15 45 -17 64
-10 14 5 37 7 53 4 15 -3 38 0 52 6 19 9 31 8 49 -1 61 -33 378 -8 453 35 23
13 50 24 60 24 10 0 32 7 48 16 67 36 171 54 192 33z m3697 -31 c1 -15 9 -35
19 -46 20 -22 22 -51 5 -53 -57 -5 -78 12 -74 62 5 64 48 95 50 37z m-143 -33
c-1 -15 -24 -12 -29 3 -3 9 2 13 12 10 10 -1 17 -7 17 -13z m-2245 -122 c6
-32 12 -87 13 -123 1 -36 6 -81 10 -101 10 -44 2 -101 -13 -96 -6 2 -16 55
-24 128 -6 68 -17 147 -23 175 -7 29 -9 57 -5 63 16 25 32 8 42 -46z m347
-246 c5 -13 -18 -77 -28 -77 -3 0 -5 20 -5 45 0 32 4 45 14 45 8 0 16 -6 19
-13z m-313 -133 c0 -26 -17 -33 -26 -9 -8 20 3 48 16 40 5 -3 10 -17 10 -31z
m185 -45 c10 -15 -1 -23 -20 -15 -9 3 -13 10 -10 16 8 13 22 13 30 -1z
m-10005 -274 c0 -8 -4 -15 -10 -15 -5 0 -10 7 -10 15 0 8 5 15 10 15 6 0 10
-7 10 -15z m-13 -57 c-3 -8 -6 -5 -6 6 -1 11 2 17 5 13 3 -3 4 -12 1 -19z
m9767 -701 c-9 -25 -34 -21 -34 6 0 13 3 27 7 31 11 11 34 -19 27 -37z m-20
-88 c-3 -5 -10 -7 -15 -3 -5 3 -7 10 -3 15 3 5 10 7 15 3 5 -3 7 -10 3 -15z
m4 -92 c2 -10 -3 -17 -12 -17 -18 0 -29 16 -21 31 9 14 29 6 33 -14z m288
-222 c13 -20 14 -28 4 -40 -18 -21 -40 -1 -40 36 0 36 14 37 36 4z m171 -321
c1 -5 -2 -16 -7 -24 -12 -20 -35 2 -26 25 6 17 27 16 33 -1z m-235 -26 c-7 -7
-12 -8 -12 -2 0 14 12 26 19 19 2 -3 -1 -11 -7 -17z m-194 -46 c2 -7 -3 -12
-12 -12 -9 0 -16 7 -16 16 0 17 22 14 28 -4z m412 -12 c0 -11 -7 -20 -15 -20
-15 0 -21 21 -8 33 12 13 23 7 23 -13z m-7780 -145 c0 -8 -4 -15 -10 -15 -5 0
-10 7 -10 15 0 8 5 15 10 15 6 0 10 -7 10 -15z m7520 -100 c0 -8 -7 -15 -15
-15 -8 0 -15 7 -15 15 0 8 7 15 15 15 8 0 15 -7 15 -15z m-9354 -170 c7 -29 0
-55 -16 -55 -15 0 -34 46 -27 64 10 25 36 19 43 -9z m4589 8 c28 -3 56 -10 64
-17 24 -19 41 -74 51 -164 13 -119 35 -238 54 -292 8 -25 27 -85 40 -135 14
-49 41 -135 61 -189 19 -55 35 -112 35 -126 0 -15 7 -44 15 -63 8 -20 15 -53
15 -74 0 -21 12 -77 26 -125 19 -66 23 -92 15 -107 -8 -14 -7 -29 5 -57 9 -21
14 -51 11 -68 -3 -17 1 -78 9 -136 28 -206 47 -527 58 -965 5 -164 7 -177 52
-236 23 -30 50 -70 62 -89 26 -44 144 -150 177 -158 13 -4 67 -49 119 -101
104 -102 116 -124 116 -223 0 -61 -31 -213 -55 -266 -15 -32 -16 -33 -77 -32
-82 2 -167 -14 -215 -38 -43 -23 -181 -155 -229 -221 -18 -24 -43 -51 -57 -60
-13 -9 -46 -39 -71 -68 -26 -29 -73 -67 -104 -84 -31 -18 -69 -42 -83 -54 -24
-20 -39 -22 -173 -23 -174 -3 -189 3 -242 86 -40 64 -56 82 -174 199 -78 77
-87 83 -157 102 -41 11 -81 28 -91 40 -17 19 -18 19 -82 1 -262 -75 -282 -76
-352 -25 -34 25 -48 42 -48 59 0 31 -19 85 -41 117 -25 36 -42 149 -28 185 20
54 190 202 321 280 62 37 90 87 93 168 12 234 45 684 55 741 5 28 12 103 15
169 3 65 14 199 25 298 12 98 18 194 15 212 -4 18 -1 59 6 92 6 32 11 69 11
82 -1 12 -2 30 -3 40 -4 64 26 220 71 372 28 96 55 192 61 214 5 21 14 47 20
57 5 10 27 69 49 130 22 62 46 119 54 128 20 23 120 296 133 366 8 46 21 55
72 55 122 -1 148 1 176 9 17 5 39 7 50 4 11 -3 43 -8 70 -10z m-2145 -14 c0
-15 -4 -19 -16 -15 -9 3 -18 6 -20 6 -2 0 -4 7 -4 15 0 8 9 15 20 15 14 0 20
-7 20 -21z m-2776 -45 c3 -9 6 -23 6 -31 0 -14 -3 -14 -20 2 -11 10 -20 24
-20 32 0 18 27 16 34 -3z m1354 -13 c3 -8 -1 -12 -9 -9 -7 2 -15 10 -17 17 -3
8 1 12 9 9 7 -2 15 -10 17 -17z m3827 -63 c26 -29 61 -76 76 -104 16 -28 38
-59 49 -69 12 -11 20 -31 20 -51 0 -24 11 -45 40 -79 28 -32 40 -55 40 -77 0
-17 17 -63 38 -102 21 -39 44 -89 50 -111 23 -83 82 -256 101 -300 47 -104 61
-141 67 -172 8 -43 44 -134 84 -213 15 -30 47 -118 71 -195 23 -77 55 -167 71
-200 15 -33 28 -70 28 -81 0 -12 13 -53 29 -91 16 -39 32 -86 36 -104 16 -73
100 -277 138 -333 58 -87 186 -227 308 -339 53 -49 173 -120 221 -132 15 -4
32 -13 39 -21 6 -8 21 -14 33 -14 11 0 37 -10 56 -21 19 -12 56 -27 82 -35 26
-8 69 -20 96 -28 26 -8 74 -22 106 -31 33 -9 65 -20 72 -26 7 -5 24 -7 38 -3
17 4 35 0 51 -10 14 -9 31 -14 37 -10 6 4 72 10 147 13 171 6 216 6 267 -4 31
-5 47 -3 66 9 18 12 37 15 64 11 22 -3 72 1 114 11 41 9 86 17 100 18 55 6
167 28 202 41 20 8 66 19 102 26 36 6 82 20 103 30 20 10 42 19 49 19 6 0 17
7 24 16 8 8 29 22 48 30 19 8 52 30 73 49 21 19 57 44 81 56 24 11 64 42 89
67 25 26 52 52 60 58 28 24 269 281 294 315 14 18 39 55 56 82 39 57 54 61 45
10 -4 -21 -12 -67 -17 -103 -6 -36 -17 -75 -25 -87 -8 -12 -14 -36 -14 -52 0
-16 -11 -53 -25 -83 -16 -34 -25 -71 -25 -104 0 -47 -24 -135 -48 -180 -6 -10
-20 -53 -32 -94 -12 -41 -35 -108 -51 -147 -16 -40 -29 -81 -29 -90 0 -10 -7
-26 -15 -36 -7 -11 -17 -49 -21 -85 -4 -41 -14 -76 -25 -91 -11 -13 -19 -34
-19 -47 0 -13 -9 -43 -19 -66 -11 -24 -27 -71 -37 -106 -10 -37 -25 -67 -36
-73 -11 -6 -18 -21 -18 -40 0 -50 -74 -247 -122 -324 -45 -73 -56 -94 -67
-130 -7 -22 -23 -56 -36 -75 -48 -75 -64 -117 -59 -151 4 -28 -2 -43 -30 -83
-20 -27 -36 -57 -36 -66 0 -10 14 -34 30 -55 17 -21 30 -44 30 -52 0 -12 -27
-71 -65 -144 -8 -14 -11 -35 -8 -48 4 -14 -1 -30 -14 -44 -13 -14 -23 -43 -27
-81 -6 -51 -22 -113 -58 -221 -6 -16 -13 -42 -15 -57 -4 -23 -11 -28 -33 -28
-26 0 -29 -5 -53 -92 -14 -51 -29 -111 -32 -133 -11 -68 -12 -69 -40 -51 -13
9 -27 16 -29 16 -17 0 -40 -77 -47 -154 -5 -50 -14 -106 -20 -125 -17 -56 -75
-166 -135 -257 -30 -45 -54 -91 -54 -101 0 -19 -34 -90 -125 -258 -29 -55 -61
-122 -71 -150 -9 -27 -24 -61 -33 -75 -10 -14 -46 -84 -81 -157 -52 -108 -69
-134 -92 -144 -34 -14 -49 -40 -72 -129 -9 -36 -30 -92 -46 -125 -16 -33 -38
-85 -50 -115 -12 -30 -32 -69 -46 -87 -13 -17 -24 -35 -24 -39 0 -4 -14 -29
-31 -56 -29 -45 -30 -50 -15 -67 9 -9 16 -23 16 -31 0 -15 -46 -60 -62 -60 -6
0 -30 -17 -53 -38 -63 -56 -95 -79 -150 -108 -134 -70 -221 -118 -230 -125 -5
-5 -17 -9 -26 -9 -22 0 -108 -38 -138 -61 -13 -11 -34 -19 -47 -19 -13 0 -40
-11 -60 -25 -20 -14 -43 -25 -51 -25 -7 0 -30 -8 -51 -19 -20 -10 -60 -22 -89
-26 -31 -4 -58 -14 -69 -26 -10 -11 -30 -19 -49 -19 -18 0 -52 -10 -76 -23
-24 -13 -75 -34 -114 -47 -38 -12 -93 -31 -121 -42 -49 -18 -192 -60 -264 -77
-111 -27 -244 -62 -320 -85 -125 -38 -219 -42 -543 -22 -90 6 -137 29 -157 76
-7 16 -20 32 -29 34 -20 6 -179 -1 -207 -9 -17 -5 -25 1 -43 30 -16 28 -26 35
-39 29 -23 -10 -100 -6 -139 8 -21 8 -42 8 -65 2 -32 -10 -98 0 -184 26 -17 6
-44 10 -60 10 -16 0 -38 7 -48 15 -11 8 -36 15 -56 15 -19 0 -44 6 -55 14 -11
7 -36 16 -55 19 -76 12 -149 34 -290 88 -41 16 -83 29 -92 29 -9 0 -20 5 -23
10 -3 6 -16 10 -28 10 -20 0 -104 28 -145 49 -51 26 -111 51 -121 51 -16 0
-156 72 -218 113 -59 38 -110 97 -119 136 -4 14 -28 69 -54 121 -26 52 -71
145 -100 205 -29 61 -59 117 -66 125 -8 9 -20 35 -29 59 -8 23 -23 54 -33 69
-10 15 -24 45 -31 67 -19 55 -64 156 -110 245 -21 41 -41 91 -44 110 -3 19
-27 71 -54 115 -27 44 -71 121 -98 170 -26 50 -54 98 -63 107 -9 11 -12 26 -8
43 5 20 -1 35 -32 73 -22 26 -58 79 -80 118 -23 39 -48 76 -56 83 -9 7 -41 66
-73 130 -31 64 -74 143 -95 177 -21 35 -38 74 -38 90 0 16 -6 38 -14 49 -8 12
-16 66 -20 140 -4 66 -13 143 -21 170 -7 28 -19 82 -25 120 -7 46 -24 92 -47
135 -67 120 -161 265 -192 294 -17 17 -31 40 -31 52 0 12 -11 35 -24 51 -13
15 -31 42 -40 58 -9 17 -45 71 -81 120 -189 264 -323 493 -339 579 -4 21 -33
108 -66 194 -120 323 -162 476 -201 737 -5 33 -14 73 -19 89 -15 44 3 56 37
24 36 -33 96 -63 192 -95 105 -35 268 -35 556 0 72 9 124 12 130 6 11 -11 102
-12 109 -1 8 14 106 8 115 -6 6 -10 14 -10 42 2 25 10 66 13 153 11 70 -3 127
0 139 6 10 6 38 12 60 14 23 2 71 7 107 11 62 7 84 8 140 5 43 -3 283 18 335
28 167 34 225 54 385 129 119 56 217 133 257 202 14 25 34 54 43 65 10 11 24
32 31 46 8 14 27 46 44 70 65 97 205 364 205 392 0 8 20 45 45 83 24 38 45 77
45 87 0 10 11 39 24 65 13 26 27 58 31 72 4 14 41 94 81 178 41 84 74 156 74
161 0 10 36 98 52 126 6 11 36 67 66 125 30 58 68 132 86 165 17 33 47 96 66
139 160 361 296 576 362 576 29 0 34 -75 8 -139 -11 -30 -19 -60 -16 -67 3 -7
-5 -25 -17 -40 -12 -15 -29 -48 -38 -73 -9 -25 -33 -84 -52 -131 -41 -99 -67
-180 -67 -210 0 -11 -8 -35 -17 -53 -9 -18 -16 -46 -14 -64 1 -17 -7 -49 -18
-70 -23 -45 -45 -156 -36 -184 4 -11 1 -27 -7 -36 -18 -22 -19 -36 -21 -413
-1 -184 -6 -345 -10 -356 -7 -19 -20 -146 -31 -304 -12 -167 -36 -386 -45
-409 -6 -14 -15 -55 -20 -91 -5 -36 -16 -90 -25 -120 -9 -30 -13 -69 -10 -86
6 -30 2 -34 -63 -76 -37 -25 -77 -55 -88 -68 -11 -12 -40 -33 -65 -45 -68 -35
-173 -123 -193 -163 -11 -19 -49 -77 -85 -128 -150 -209 -216 -330 -266 -489
-16 -49 -36 -106 -46 -125 -10 -19 -21 -51 -25 -70 -4 -19 -20 -59 -36 -89
-19 -35 -29 -69 -29 -96 0 -37 -10 -74 -49 -180 -6 -16 -13 -56 -17 -88 -3
-31 -12 -63 -20 -71 -8 -9 -14 -35 -14 -65 0 -27 -10 -87 -21 -133 -12 -46
-28 -117 -36 -158 -8 -41 -24 -110 -35 -152 -11 -43 -18 -88 -15 -101 4 -12 0
-47 -9 -77 -15 -57 -40 -211 -55 -340 -4 -41 -13 -111 -18 -155 -34 -269 -34
-250 -6 -310 19 -39 53 -80 123 -146 109 -102 137 -123 151 -115 5 4 24 27 41
53 27 39 30 50 21 70 -6 13 -18 23 -26 23 -25 0 -145 100 -172 144 -25 39 -26
47 -25 166 3 187 7 247 20 262 6 8 14 49 18 93 4 44 15 102 26 129 11 28 17
59 14 70 -3 12 -1 50 5 86 5 36 13 97 18 135 4 39 18 90 30 115 13 25 26 68
31 95 5 28 13 68 18 90 5 22 20 85 32 140 12 55 26 110 31 123 5 13 9 35 9 49
0 14 7 46 14 72 23 72 44 150 61 224 9 37 23 86 31 108 7 23 14 54 14 70 0 16
10 50 21 76 34 77 45 104 89 219 5 12 40 70 79 130 39 59 72 112 74 117 5 16
27 -2 27 -22 0 -37 53 -169 93 -229 49 -75 150 -152 208 -159 21 -3 72 2 115
12 42 9 129 20 193 24 64 4 121 9 126 12 6 2 38 -11 72 -29 45 -24 69 -45 90
-77 15 -25 48 -72 73 -104 25 -32 53 -72 62 -90 10 -17 25 -34 35 -38 10 -3
29 -16 43 -28 32 -28 66 -40 165 -59 83 -16 228 -14 249 3 6 5 31 11 56 14 40
4 118 27 160 47 8 4 18 22 21 40 4 19 16 41 27 49 33 26 101 122 113 161 13
38 67 120 81 120 4 0 22 22 39 50 36 59 116 110 172 110 20 0 48 5 63 10 18 7
37 7 58 0 22 -7 41 -6 66 3 37 13 110 80 110 101 0 7 6 20 13 30 12 17 15 16
45 -9 17 -14 52 -57 77 -95 25 -38 57 -78 71 -89 13 -10 24 -26 24 -34 0 -9
21 -40 48 -71 31 -36 56 -80 75 -130 16 -42 38 -88 51 -103 20 -23 25 -24 45
-13 18 9 30 9 48 1 35 -16 36 -15 30 25 -4 20 -2 46 4 56 8 16 5 27 -15 56
-88 123 -142 210 -161 257 -23 56 -127 207 -197 287 -62 71 -118 166 -118 202
0 57 -51 132 -173 252 -203 202 -257 261 -257 280 0 11 -11 125 -24 254 -13
129 -21 251 -19 271 3 25 -1 46 -14 65 -16 25 -22 61 -23 154 -1 14 -5 39 -10
55 -9 29 -23 157 -41 375 -4 58 -12 130 -18 160 -5 30 -14 87 -20 127 -15 101
-57 265 -91 350 -16 40 -46 130 -66 200 -20 71 -45 152 -56 181 -13 34 -18 67
-15 90 3 24 -6 78 -28 157 -40 143 -51 205 -37 205 6 0 31 -24 57 -52z m-5145
-43 c0 -8 -7 -15 -15 -15 -8 0 -15 7 -15 15 0 8 7 15 15 15 8 0 15 -7 15 -15z
m2858 -38 c2 -12 -3 -17 -17 -17 -12 0 -21 6 -21 13 0 31 32 34 38 4z m-2854
-78 c-3 -5 -10 -7 -15 -3 -5 3 -7 10 -3 15 3 5 10 7 15 3 5 -3 7 -10 3 -15z
m71 -229 c0 -36 -29 -33 -33 3 -3 23 0 28 15 25 12 -2 18 -12 18 -28z m8755
17 c0 -7 -5 -18 -12 -25 -7 -7 -18 -12 -25 -12 -16 0 -17 22 -1 38 16 16 38
15 38 -1z m-8616 -13 c10 -25 7 -94 -4 -94 -5 0 -10 11 -10 24 0 13 -3 38 -6
55 -7 32 9 44 20 15z m8806 -89 c16 -19 4 -35 -25 -35 -27 0 -39 14 -31 35 7
19 40 19 56 0z m317 -11 c7 -19 -20 -49 -36 -40 -15 10 -14 43 2 49 21 9 27 7
34 -9z m-9217 -65 c0 -11 -4 -19 -9 -19 -16 0 -33 30 -27 46 5 13 9 14 21 4 8
-7 15 -21 15 -31z m3658 13 c2 -14 -2 -22 -11 -22 -17 0 -26 19 -19 38 7 19
27 9 30 -16z m5452 -67 c15 -18 6 -45 -13 -45 -20 0 -40 27 -33 45 7 19 30 19
46 0z m-2356 -70 c3 -9 -1 -18 -10 -22 -19 -7 -39 11 -30 26 10 16 33 13 40
-4z m-6557 -54 c11 -32 12 -46 3 -55 -14 -14 -32 12 -24 36 2 9 0 19 -6 23
-14 8 -13 48 1 43 6 -2 18 -23 26 -47z m8810 -17 c7 -18 -14 -35 -34 -27 -7 3
-13 14 -13 24 0 24 38 26 47 3z m-3223 -33 c9 -16 22 -31 30 -34 18 -7 58 -82
49 -91 -12 -12 -33 -6 -33 10 0 9 -18 33 -40 53 -43 39 -64 91 -36 91 8 0 22
-13 30 -29z m1171 -37 c26 -17 34 -54 12 -54 -22 0 -57 31 -57 51 0 23 13 24
45 3z m-6865 -35 c0 -5 -7 -9 -15 -9 -15 0 -20 12 -9 23 8 8 24 -1 24 -14z
m2595 -59 c8 -13 -14 -42 -26 -34 -5 3 -9 14 -9 25 0 20 24 26 35 9z m-2259
-106 c12 -17 14 -28 7 -35 -13 -13 -43 15 -43 42 0 27 16 24 36 -7z m8311 -40
c-9 -9 -28 6 -21 18 4 6 10 6 17 -1 6 -6 8 -13 4 -17z m-8407 -27 c7 -17 15
-35 18 -39 2 -5 -3 -8 -12 -8 -16 0 -60 73 -50 83 12 11 30 -4 44 -36z m376
-104 c16 -22 18 -50 3 -59 -15 -9 -29 14 -29 49 0 31 7 34 26 10z m7882 -46
c2 -10 -3 -17 -12 -17 -10 0 -16 9 -16 21 0 24 23 21 28 -4z m-2268 -42 c9
-10 10 -19 4 -25 -13 -13 -49 13 -40 28 10 16 21 15 36 -3z m1832 -40 c0 -5
-5 -11 -11 -13 -6 -2 -11 4 -11 13 0 9 5 15 11 13 6 -2 11 -8 11 -13z m-5312
-10 c0 -8 -7 -15 -15 -15 -16 0 -20 12 -8 23 11 12 23 8 23 -8z m5668 -7 c-2
-13 -10 -23 -18 -23 -8 0 -16 10 -18 23 -3 17 2 22 18 22 16 0 21 -5 18 -22z
m-8050 -61 c2 -19 -1 -27 -13 -27 -19 0 -30 24 -21 46 9 23 31 11 34 -19z
m7962 -53 c0 -11 -50 -54 -64 -54 -15 0 -4 46 16 67 16 17 24 20 35 12 7 -6
13 -17 13 -25z m-7560 -44 c7 -25 7 -46 2 -57 -8 -14 -11 -13 -26 8 -8 14 -19
39 -22 57 -6 28 -4 32 14 32 16 0 24 -10 32 -40z m-973 18 c7 -12 41 -102 46
-122 1 -5 -4 -11 -10 -13 -7 -3 -13 3 -13 13 0 9 -13 41 -30 71 -16 29 -30 55
-30 58 0 10 29 5 37 -7z m9333 -8 c0 -11 -7 -20 -15 -20 -8 0 -15 9 -15 20 0
11 7 20 15 20 8 0 15 -9 15 -20z m-6169 -18 c-34 -76 -42 -92 -51 -92 -15 0
-12 36 5 50 8 7 15 20 15 29 0 20 20 42 31 35 5 -2 5 -12 0 -22z m4087 -9 c4
-25 -16 -31 -36 -11 -20 20 -14 40 11 36 14 -2 23 -11 25 -25z m-5690 -21 c3
-19 -1 -23 -15 -20 -10 2 -19 14 -21 26 -3 19 1 23 15 20 10 -2 19 -14 21 -26z
m1102 -53 c0 -25 -26 -24 -40 0 -14 27 -13 29 15 23 16 -3 25 -11 25 -23z
m-2342 -17 c4 -24 -7 -29 -25 -11 -14 14 -5 41 11 36 6 -2 12 -13 14 -25z
m6472 -3 c0 -5 -7 -9 -15 -9 -15 0 -20 12 -9 23 8 8 24 -1 24 -14z m270 -35
c0 -18 -14 -18 -30 1 -16 19 -3 40 16 24 8 -6 14 -18 14 -25z m1278 -1 c12
-24 4 -43 -18 -43 -22 0 -34 28 -19 46 15 19 26 18 37 -3z m-7633 -33 c3 -5 1
-10 -4 -10 -6 0 -11 5 -11 10 0 6 2 10 4 10 3 0 8 -4 11 -10z m1863 -22 c17
-17 15 -48 -3 -48 -17 0 -39 36 -30 50 8 13 18 13 33 -2z m200 -26 c3 -17 -2
-22 -17 -22 -16 0 -21 6 -21 26 0 33 33 30 38 -4z m4187 -3 c9 -27 -7 -43 -34
-34 -14 4 -21 15 -21 31 0 19 5 24 24 24 16 0 27 -7 31 -21z m-4463 -108 c39
-71 23 -88 -26 -28 -20 24 -36 54 -36 66 0 39 31 20 62 -38z m5696 15 c3 -13
-1 -17 -14 -14 -11 2 -20 11 -22 22 -3 13 1 17 14 14 11 -2 20 -11 22 -22z
m-5494 -12 c20 -19 21 -44 1 -44 -17 0 -34 29 -28 48 6 16 8 15 27 -4z m4116
-10 c0 -8 -7 -14 -15 -14 -8 0 -15 9 -15 20 0 13 5 18 15 14 8 -4 15 -12 15
-20z m555 -49 c0 -28 -29 -25 -33 3 -3 19 0 23 15 20 10 -2 18 -12 18 -23z
m742 -11 c3 -8 0 -21 -6 -27 -14 -14 -44 2 -49 27 -5 22 46 22 55 0z m-7927
-9 c16 -19 3 -57 -18 -53 -22 4 -30 68 -9 68 8 0 20 -7 27 -15z m1118 -93 c3
-9 -2 -13 -14 -10 -9 1 -19 9 -22 16 -3 9 2 13 14 10 9 -1 19 -9 22 -16z
m1042 -13 c10 -18 9 -20 -7 -17 -10 2 -19 11 -21 21 -5 24 15 21 28 -4z m5175
1 c0 -22 -29 -18 -33 3 -3 14 1 18 15 15 10 -2 18 -10 18 -18z m-1445 -6 c0
-8 -4 -12 -10 -9 -5 3 -10 10 -10 16 0 5 5 9 10 9 6 0 10 -7 10 -16z m1030
-59 c13 -16 6 -35 -15 -35 -18 0 -28 17 -21 35 7 19 20 19 36 0z m-4100 -116
c0 -5 -7 -9 -15 -9 -15 0 -20 12 -9 23 8 8 24 -1 24 -14z m4518 -14 c-1 -10
-13 -22 -26 -26 -34 -13 -42 18 -12 43 25 20 44 12 38 -17z m-6330 -22 c6 -19
-25 -16 -32 3 -4 11 -1 14 11 12 9 -2 18 -9 21 -15z m6052 2 c0 -8 -4 -15 -9
-15 -5 0 -14 7 -21 15 -10 13 -9 15 9 15 12 0 21 -6 21 -15z m-5992 -59 c3
-13 -1 -17 -14 -14 -11 2 -20 11 -22 22 -3 13 1 17 14 14 11 -2 20 -11 22 -22z
m361 0 c13 -14 21 -30 19 -36 -5 -15 -58 27 -58 46 0 21 13 17 39 -10z m4936
-6 c3 -5 2 -10 -4 -10 -5 0 -13 5 -16 10 -3 6 -2 10 4 10 5 0 13 -4 16 -10z
m-5045 -60 c0 -5 -5 -12 -12 -16 -12 -8 -40 24 -32 38 6 10 44 -9 44 -22z
m5120 -26 c0 -9 -5 -14 -12 -12 -18 6 -21 28 -4 28 9 0 16 -7 16 -16z m-6074
-75 c9 -16 -18 -30 -33 -17 -7 6 -10 14 -7 19 7 13 31 11 40 -2z m55 -39 c18
-10 27 -40 11 -40 -13 0 -52 30 -52 41 0 12 17 12 41 -1z m-97 -162 c5 -9 7
-20 3 -24 -11 -11 -57 14 -57 31 0 21 39 16 54 -7z m7234 -5 c5 -18 -28 -29
-38 -12 -5 7 -6 17 -3 22 7 12 35 5 41 -10z m-7058 -28 c0 -8 -9 -15 -20 -15
-11 0 -20 7 -20 15 0 8 9 15 20 15 11 0 20 -7 20 -15z m6888 -27 c19 -19 14
-30 -10 -26 -13 2 -24 11 -26 21 -4 20 18 23 36 5z"/>
<path d="M11680 13639 c-80 -5 -155 -14 -167 -20 -12 -7 -32 -9 -45 -6 -12 4
-47 0 -78 -8 -30 -7 -66 -14 -80 -14 -14 0 -50 -5 -80 -11 -102 -21 -184 -31
-345 -41 -204 -12 -168 -12 -534 -6 -173 2 -328 1 -346 -3 -18 -4 -82 -2 -141
4 -169 17 -506 4 -551 -22 -12 -6 -35 -12 -50 -12 -53 0 -358 -74 -368 -90 -3
-5 9 -29 26 -55 23 -34 36 -44 48 -40 15 7 123 24 291 46 71 10 154 14 418 23
62 3 127 9 143 15 20 7 37 7 49 1 10 -5 63 -7 122 -5 56 3 114 5 128 5 14 -1
173 -1 353 -1 234 0 332 3 342 11 8 7 26 9 44 5 20 -4 38 -1 52 9 19 13 25 13
50 0 33 -17 61 -18 75 -4 6 6 49 11 97 11 63 1 87 5 91 15 8 20 29 17 49 -7
16 -19 20 -19 40 -6 13 8 48 20 80 26 31 6 81 16 110 21 28 6 95 12 147 15 52
3 114 7 137 11 23 3 44 1 47 -5 4 -6 42 -7 96 -4 95 6 321 -13 354 -30 11 -5
60 -11 110 -13 50 -2 126 -10 169 -19 55 -12 82 -13 91 -6 9 7 18 6 32 -3 21
-15 97 -25 224 -30 47 -1 93 -6 103 -11 9 -4 30 -2 46 5 25 10 33 9 56 -6 19
-13 52 -19 109 -21 89 -3 174 -10 252 -19 46 -6 53 -4 68 17 9 13 16 40 16 61
0 45 -29 69 -81 68 -97 -2 -308 12 -339 22 -19 7 -60 13 -90 15 -30 1 -82 5
-115 7 -33 3 -94 7 -135 9 -69 4 -113 9 -290 36 -36 6 -98 15 -138 20 -41 6
-89 15 -108 21 -20 7 -52 10 -72 8 -20 -3 -50 -1 -67 4 -46 13 -283 17 -445 7z"/>
<path d="M11224 13089 c-5 -8 -49 -9 -153 -5 -100 5 -168 3 -216 -5 -38 -7
-117 -13 -175 -14 -152 -3 -370 -24 -407 -41 -23 -9 -40 -11 -57 -4 -15 5 -37
5 -58 -1 -18 -5 -67 -11 -108 -13 -41 -3 -88 -7 -105 -11 -28 -5 -159 -14
-214 -15 -13 0 -41 -5 -62 -10 -21 -6 -87 -13 -148 -16 -147 -7 -259 -19 -356
-38 -44 -9 -132 -23 -195 -31 -63 -8 -140 -19 -170 -25 -30 -5 -91 -14 -136
-18 -44 -5 -87 -13 -95 -18 -8 -5 -43 -12 -79 -15 -74 -8 -160 -24 -325 -58
-46 -10 -85 -39 -85 -62 0 -5 11 -14 25 -19 14 -5 25 -16 25 -25 0 -21 28 -19
117 11 43 14 112 32 153 41 41 8 95 19 120 24 25 6 79 14 120 19 98 11 251 36
320 50 30 7 89 14 130 16 41 2 85 9 96 15 16 8 27 8 42 0 15 -8 23 -7 31 3 7
9 34 14 72 15 33 0 65 3 71 7 10 7 162 16 213 14 17 -1 37 -2 45 -2 29 0 95
14 118 24 16 9 28 8 46 -1 19 -10 28 -10 46 -1 14 7 71 13 139 14 64 1 121 5
126 8 6 3 38 6 73 7 35 0 68 4 74 7 7 4 43 8 82 10 39 1 99 8 133 15 52 11 67
10 88 -1 22 -12 27 -11 45 5 16 15 22 16 35 5 12 -10 24 -11 53 -2 20 7 62 12
92 11 30 0 93 2 140 5 47 4 95 7 108 6 12 0 30 0 40 0 9 0 94 0 187 0 186 0
209 0 305 -1 131 -2 223 4 279 18 18 4 63 6 100 2 36 -3 75 -2 85 4 21 10 143
-13 236 -45 68 -24 181 -48 223 -48 18 0 76 -11 129 -24 53 -14 138 -28 190
-31 51 -4 97 -10 103 -13 5 -3 39 -7 75 -9 36 -1 90 -5 120 -8 30 -4 182 -8
337 -11 280 -5 282 -5 293 17 10 18 8 26 -17 52 -38 43 -42 45 -64 40 -11 -3
-28 2 -39 12 -17 16 -26 17 -58 7 -74 -22 -94 -23 -111 -7 -15 13 -26 13 -76
3 -44 -9 -62 -8 -76 1 -15 8 -25 9 -40 0 -15 -8 -33 -8 -63 0 -70 18 -111 25
-121 21 -23 -7 -120 1 -133 13 -8 6 -47 13 -86 13 -96 2 -204 12 -246 24 -19
6 -67 10 -106 10 -49 0 -75 4 -83 14 -14 17 -168 37 -275 36 -22 0 -45 5 -52
11 -16 13 -205 22 -439 20 -99 0 -184 -1 -190 -2 -5 -1 -65 1 -132 5 -85 4
-124 3 -129 -5z"/>
<path d="M10900 12620 c-30 -5 -58 -6 -63 -3 -5 3 -20 0 -33 -8 -19 -10 -27
-10 -36 -1 -19 19 -73 14 -101 -8 -22 -18 -29 -19 -46 -8 -18 11 -23 10 -35
-7 -14 -19 -15 -19 -35 -1 -21 19 -22 19 -45 -3 -21 -20 -31 -22 -68 -17 -42
7 -79 8 -148 7 -19 -1 -43 -10 -55 -20 -38 -34 -148 -61 -248 -61 -58 -1 -101
-6 -117 -14 -16 -10 -32 -11 -48 -5 -16 6 -32 4 -52 -6 -16 -8 -38 -15 -50
-15 -11 0 -32 -7 -45 -16 -16 -11 -34 -14 -55 -9 -18 4 -36 2 -44 -4 -8 -7
-31 -8 -71 -1 -39 6 -63 6 -69 0 -6 -6 -25 -10 -43 -10 -19 0 -84 -20 -146
-44 -62 -24 -128 -48 -147 -53 -37 -9 -49 -34 -31 -62 8 -13 25 -12 123 7 62
12 151 29 198 37 47 9 107 21 134 27 27 6 81 15 120 20 39 5 105 13 146 19 41
5 107 14 145 18 39 5 162 21 275 36 113 14 246 30 295 35 50 6 131 14 180 20
140 16 291 25 395 24 311 -4 591 -13 601 -20 7 -4 35 -8 63 -10 28 -1 105 -8
171 -13 107 -10 366 -30 405 -31 131 -4 581 9 603 18 26 11 28 15 25 64 l-3
53 -135 -5 c-147 -5 -165 -5 -382 3 -82 3 -152 8 -157 11 -5 4 -20 2 -33 -2
-14 -6 -34 -5 -52 3 -19 8 -43 9 -75 3 -25 -5 -63 -6 -84 -2 -67 11 -114 14
-397 30 -52 3 -185 7 -295 9 -111 2 -220 9 -244 16 -34 10 -48 9 -64 0 -14 -9
-22 -10 -30 -2 -12 12 -17 12 -97 1z"/>
<path d="M9580 7213 c-6 -10 -30 -59 -54 -109 -24 -51 -49 -95 -55 -98 -6 -4
-11 -21 -11 -37 0 -17 -8 -44 -17 -62 -16 -32 -30 -80 -40 -147 -3 -19 -11
-42 -18 -50 -8 -8 -23 -51 -35 -95 -11 -44 -27 -97 -35 -118 -8 -20 -15 -49
-15 -62 0 -14 -9 -51 -20 -82 -22 -65 -48 -216 -59 -338 -4 -44 -12 -89 -18
-100 -5 -11 -9 -58 -8 -104 1 -90 13 -111 62 -111 19 0 23 5 23 33 1 31 24
164 55 322 16 75 36 117 51 102 7 -7 -12 -162 -27 -219 -5 -21 -7 -60 -3 -87
4 -31 2 -51 -5 -55 -16 -10 -14 -59 5 -106 17 -43 44 -52 76 -27 17 13 45 176
53 317 2 41 7 81 11 90 9 20 24 101 31 165 2 28 9 54 14 60 5 5 9 25 9 44 0
37 12 83 38 141 8 19 16 62 17 95 1 33 10 74 19 90 9 17 16 43 16 58 0 15 11
54 25 87 14 33 25 66 25 74 0 8 12 52 26 97 29 91 24 125 -18 131 -16 2 -24
12 -29 37 -4 19 -19 44 -36 57 -34 28 -40 29 -53 7z m-174 -995 c-3 -17 -8
-33 -10 -36 -10 -9 -26 11 -26 32 0 26 8 36 28 36 11 0 13 -8 8 -32z"/>
<path d="M12325 7198 c-29 -34 -29 -32 0 -153 9 -38 20 -97 25 -130 5 -33 16
-86 25 -118 8 -32 15 -76 15 -98 0 -22 6 -50 12 -62 7 -12 14 -49 15 -82 1
-33 5 -100 8 -150 4 -49 5 -106 4 -125 -5 -103 -1 -304 10 -454 1 -10 72 2 88
16 8 6 10 20 7 35 -4 16 0 30 11 43 14 16 16 29 10 67 -22 141 -22 145 -7 151
21 8 39 -21 47 -76 3 -26 13 -57 21 -69 8 -12 14 -37 14 -54 0 -58 21 -109 44
-109 34 1 71 34 61 56 -4 11 -9 58 -11 107 -2 48 -9 97 -15 109 -6 12 -13 46
-15 76 -2 30 -10 69 -18 86 -12 27 -32 111 -77 326 -5 25 -13 54 -18 65 -6 11
-12 38 -15 60 -6 58 -33 154 -46 170 -7 8 -10 24 -7 36 3 12 -5 62 -18 113
-18 68 -30 96 -49 111 -14 11 -30 35 -37 53 -15 43 -48 43 -84 0z"/>
<path d="M8571 7206 c-6 -8 -16 -40 -22 -72 -6 -33 -15 -73 -20 -90 -5 -17 -9
-63 -9 -103 0 -41 -6 -83 -14 -99 -7 -15 -16 -72 -19 -127 -4 -55 -11 -136
-17 -180 -6 -44 -13 -152 -15 -240 -2 -88 -9 -185 -14 -215 -6 -30 -13 -120
-17 -200 -3 -80 -8 -174 -11 -210 -2 -36 -5 -164 -6 -285 l-1 -220 34 -95 c18
-52 37 -99 41 -105 4 -5 18 -46 32 -90 25 -79 112 -281 128 -299 5 -6 9 -25 9
-43 0 -36 39 -83 69 -83 16 0 71 76 71 98 0 6 -9 16 -19 21 -20 11 -44 67 -35
82 6 10 -38 112 -78 182 -15 26 -28 58 -28 70 0 12 -9 42 -20 66 -11 24 -20
56 -20 72 0 15 -7 54 -16 86 -9 32 -20 76 -24 98 -4 22 -13 64 -19 94 -6 29
-8 58 -4 64 4 6 10 43 14 81 4 39 16 136 27 216 11 80 21 177 22 215 5 150 9
214 20 308 11 94 16 189 25 487 2 74 9 194 15 265 9 122 9 134 -11 185 -30 80
-45 94 -68 66z"/>
<path d="M13168 7173 c-28 -7 -21 -41 14 -74 29 -25 31 -32 20 -49 -16 -27
-15 -45 4 -61 51 -42 214 -451 214 -536 0 -13 9 -61 19 -106 11 -45 22 -127
25 -182 3 -55 13 -136 22 -180 9 -44 17 -104 19 -133 1 -29 7 -58 14 -65 16
-16 14 -37 -5 -58 -15 -16 -14 -22 4 -72 17 -44 20 -71 17 -143 -3 -49 -7
-100 -10 -114 -3 -14 -1 -54 5 -90 6 -36 11 -74 11 -85 1 -45 -10 -254 -15
-310 -3 -33 -8 -98 -9 -145 -2 -47 -8 -101 -14 -120 -6 -19 -14 -50 -17 -68
-6 -33 -6 -34 32 -31 61 4 69 12 76 81 4 35 12 81 17 103 11 45 29 215 34 315
7 162 4 661 -4 711 -5 31 -13 105 -16 165 -4 60 -13 136 -21 169 -8 33 -14 81
-14 106 0 26 -9 75 -19 110 -11 35 -34 134 -51 219 -31 156 -78 290 -144 414
-115 218 -142 247 -208 229z"/>
<path d="M12584 7115 c-12 -8 -27 -27 -33 -43 -11 -26 -8 -37 23 -105 26 -54
36 -90 36 -124 0 -26 6 -59 13 -73 8 -14 22 -57 32 -95 10 -39 25 -83 33 -99
7 -15 11 -37 9 -48 -3 -11 0 -34 7 -52 30 -71 50 -144 56 -203 4 -34 16 -80
27 -101 16 -34 18 -50 12 -104 -7 -53 -5 -67 10 -88 9 -14 28 -44 41 -67 29
-53 49 -60 101 -36 41 18 41 18 36 64 -5 44 -28 154 -48 230 -12 47 -12 99 1
99 15 0 29 -34 44 -107 8 -37 19 -84 26 -103 7 -19 14 -40 16 -47 4 -17 60 3
78 28 17 25 11 88 -20 201 -13 48 -24 98 -24 112 0 14 -6 40 -14 58 -7 18 -21
63 -29 101 -9 37 -25 86 -36 110 -12 26 -16 46 -10 52 15 15 48 -26 63 -80 20
-69 53 -162 77 -212 12 -27 19 -65 19 -100 0 -38 6 -68 18 -88 17 -28 25 -57
63 -229 7 -32 18 -60 25 -63 12 -4 104 53 104 65 0 4 -14 52 -30 107 -16 55
-30 116 -30 135 0 19 -7 46 -15 60 -8 14 -14 36 -15 49 0 41 -66 241 -91 276
-4 6 -25 53 -47 105 -57 135 -165 343 -180 348 -7 2 -28 -13 -47 -34 l-34 -37
-10 24 c-5 13 -12 32 -15 42 -7 22 -44 22 -75 1 -17 -12 -21 -22 -16 -41 9
-39 -14 -24 -42 27 -57 102 -71 112 -109 85z"/>
<path d="M8082 7081 c-6 -16 -22 -37 -37 -47 -23 -15 -26 -22 -19 -48 4 -17 8
-123 9 -236 2 -123 9 -251 19 -320 9 -63 21 -151 28 -195 12 -86 47 -155 78
-155 17 0 64 43 56 51 -5 5 -13 58 -36 229 -25 178 -37 409 -30 545 6 128 5
143 -12 173 -24 40 -43 41 -56 3z"/>
<path d="M10066 7101 c-3 -4 -23 -11 -43 -14 -21 -4 -49 -14 -62 -23 -20 -14
-22 -22 -17 -55 3 -21 -1 -80 -10 -131 -9 -50 -14 -105 -11 -122 2 -16 -2 -50
-10 -75 -7 -25 -16 -100 -19 -166 -3 -66 -9 -146 -15 -177 -5 -32 -12 -142
-14 -245 -2 -103 -7 -243 -11 -311 -8 -146 2 -182 47 -182 41 0 56 31 63 130
11 141 26 291 37 360 5 36 12 85 14 110 2 25 8 74 14 110 27 170 31 207 26
227 -3 12 0 34 5 49 6 15 15 62 20 103 5 42 16 108 24 146 42 201 39 275 -10
275 -13 0 -25 -4 -28 -9z"/>
<path d="M12140 7085 c-45 -12 -45 -12 -48 -61 -4 -58 11 -155 44 -276 13 -48
24 -98 24 -111 0 -13 6 -43 14 -68 40 -128 62 -259 86 -519 12 -130 23 -178
48 -202 18 -19 21 -19 50 -4 17 9 33 20 37 25 3 5 0 43 -6 83 -6 40 -13 96
-14 123 -8 160 -17 254 -26 283 -6 18 -8 50 -4 72 5 28 2 46 -9 62 -9 12 -16
33 -16 45 0 12 -8 38 -17 58 -14 30 -15 41 -5 67 10 27 9 36 -5 57 -9 15 -22
62 -29 106 -8 55 -20 93 -37 118 -20 29 -24 45 -20 79 7 62 -9 77 -67 63z"/>
<path d="M11770 7033 c-25 -3 -49 -8 -53 -12 -5 -5 1 -41 13 -82 14 -46 20
-86 16 -109 -3 -19 -1 -60 5 -90 8 -47 26 -182 43 -325 3 -22 8 -168 11 -325
4 -157 10 -289 15 -294 4 -4 26 -5 48 -1 l39 6 11 82 c6 45 15 102 18 127 9
62 10 148 2 190 -5 31 -18 241 -23 385 -1 28 -7 60 -14 73 -6 12 -10 26 -7 31
3 5 2 33 -3 62 -5 30 -15 97 -21 149 -11 87 -30 143 -48 138 -4 -1 -27 -3 -52
-5z"/>
<path d="M11915 7019 c-7 -22 3 -288 11 -301 3 -5 7 -27 9 -51 4 -56 31 -196
43 -227 5 -14 6 -36 2 -50 -4 -16 3 -67 21 -140 16 -63 29 -122 29 -131 0 -9
9 -37 20 -62 11 -25 17 -52 14 -61 -9 -24 47 -186 71 -206 9 -7 22 -5 44 7 37
22 43 35 31 69 -6 14 -10 42 -10 61 0 20 -16 84 -35 142 -69 211 -110 427
-135 712 -22 248 -25 259 -82 259 -18 0 -29 -6 -33 -21z"/>
<path d="M9785 7008 c-2 -13 -10 -45 -15 -73 -6 -27 -29 -106 -51 -175 -22
-69 -44 -157 -48 -195 -5 -39 -15 -84 -23 -100 -9 -17 -21 -61 -27 -100 -6
-38 -16 -95 -22 -125 -5 -30 -11 -86 -13 -125 -3 -38 -12 -107 -20 -152 -15
-74 -15 -86 -2 -112 20 -37 61 -49 88 -24 35 31 61 95 64 154 4 97 27 251 49
334 8 28 19 84 26 125 7 41 21 94 31 118 10 24 18 57 18 74 0 16 6 42 14 56
16 30 49 206 50 267 1 43 -14 56 -81 70 -28 6 -33 3 -38 -17z"/>
<path d="M10256 6975 c-15 -25 -31 -71 -37 -103 -12 -79 -33 -177 -52 -242
-20 -73 -48 -214 -53 -268 -2 -23 -8 -51 -14 -62 -5 -10 -10 -39 -10 -65 0
-25 -6 -58 -13 -73 -8 -15 -14 -60 -15 -100 -1 -40 -9 -103 -17 -138 -25 -110
-16 -174 25 -174 36 0 48 31 90 225 12 55 28 126 36 157 8 32 14 77 14 101 0
24 7 53 17 67 10 14 18 39 19 55 3 45 21 131 32 152 10 17 25 104 39 213 3 25
16 68 29 97 13 28 24 66 24 82 0 29 13 41 24 23 3 -5 -4 -37 -14 -71 -11 -34
-17 -73 -14 -85 3 -13 -1 -45 -10 -72 -8 -27 -17 -101 -21 -165 -3 -64 -10
-131 -15 -149 -5 -17 -10 -163 -12 -323 l-3 -292 39 2 c22 2 43 6 47 10 3 5
14 94 23 198 20 228 34 343 46 370 5 11 11 49 14 85 7 94 17 154 27 164 5 6 9
35 9 66 0 31 4 60 9 66 10 9 16 67 13 121 -1 22 -9 36 -26 45 -13 7 -42 23
-64 36 -23 12 -49 36 -57 52 -10 20 -23 30 -38 30 -12 0 -31 3 -43 6 -17 5
-26 -3 -48 -41z"/>
<path d="M10745 7006 l-50 -12 -6 -50 c-3 -27 -22 -87 -43 -133 -73 -161 -136
-482 -136 -688 l0 -102 31 -17 c25 -12 36 -13 59 -4 26 11 28 17 39 99 6 48
11 106 11 129 0 22 5 53 10 67 6 15 17 55 24 89 8 33 24 95 35 136 30 109 37
136 57 223 11 47 23 77 31 77 17 0 16 -33 -3 -122 -9 -40 -18 -134 -20 -208
-7 -216 -10 -254 -23 -277 -6 -12 -11 -35 -11 -50 0 -15 -2 -53 -5 -83 -8 -87
-7 -111 9 -135 17 -26 47 -24 85 5 22 16 25 26 27 96 1 44 7 99 14 123 6 24 9
59 6 77 -4 17 -1 43 5 57 9 19 9 34 0 58 -10 28 -9 35 9 54 22 23 37 81 50
190 5 39 11 79 15 90 3 11 -1 34 -9 50 -9 17 -16 36 -16 43 0 7 -9 35 -21 62
-16 38 -27 49 -50 54 -24 4 -29 11 -29 33 0 16 4 34 9 42 25 39 -12 49 -104
27z"/>
<path d="M11560 6976 c-35 -13 -35 -14 -32 -67 2 -30 10 -78 18 -107 8 -29 12
-57 9 -61 -3 -5 0 -38 6 -73 17 -101 28 -257 34 -492 4 -121 10 -228 16 -237
5 -10 9 -33 9 -52 0 -21 7 -41 20 -52 19 -17 23 -17 54 -3 l33 16 5 104 c7
127 1 339 -13 467 -6 53 -10 112 -10 131 0 31 -13 140 -40 344 -13 99 -29 111
-109 82z"/>
<path d="M8981 6935 c-21 -24 -31 -46 -31 -68 0 -18 -10 -66 -21 -107 -11 -41
-29 -106 -39 -145 -9 -38 -24 -86 -33 -105 -8 -19 -22 -88 -30 -152 -9 -65
-18 -122 -22 -127 -14 -23 -36 -202 -36 -285 2 -135 12 -156 66 -136 20 8 25
16 25 47 0 21 7 47 15 57 9 12 15 42 15 72 0 29 13 110 29 181 16 70 35 162
41 203 7 41 23 106 36 143 13 38 24 83 24 100 1 18 12 64 26 102 14 39 33 98
43 132 l18 62 -38 31 c-21 16 -42 30 -47 30 -6 0 -24 -16 -41 -35z"/>
<path d="M10886 6952 c-2 -4 -1 -14 4 -22 7 -11 12 -12 21 -3 6 6 8 16 5 22
-8 13 -23 14 -30 3z"/>
<path d="M11270 6895 c-14 -17 -33 -191 -24 -207 9 -14 8 -196 0 -235 -5 -21
-2 -41 8 -62 18 -33 20 -120 4 -163 -7 -20 -6 -32 7 -52 15 -22 15 -32 4 -74
-9 -38 -9 -57 -1 -82 7 -18 12 -68 12 -112 0 -140 46 -194 91 -107 11 23 18
50 15 61 -2 11 -1 30 4 42 4 12 4 60 0 106 -5 47 -11 153 -14 236 -3 83 -10
173 -15 200 -5 27 -9 90 -10 139 0 50 -5 122 -10 159 -6 38 -7 81 -4 96 10 54
-36 92 -67 55z"/>
<path d="M11432 6870 c-7 -11 -18 -20 -26 -20 -34 0 -39 -27 -26 -123 7 -50
13 -132 14 -182 1 -49 7 -100 14 -112 7 -12 12 -42 12 -68 0 -25 6 -61 14 -80
11 -26 13 -65 10 -162 -5 -121 -4 -130 18 -168 27 -47 56 -55 84 -24 17 19 19
34 16 136 -2 63 -7 126 -13 140 -5 13 -9 51 -9 83 0 33 -7 85 -15 117 -8 31
-17 114 -20 183 -4 107 -19 244 -31 288 -5 18 -28 14 -42 -8z"/>
<path d="M11024 6866 c-4 -9 -4 -34 -2 -54 3 -20 1 -62 -3 -92 -46 -288 -64
-572 -42 -688 13 -72 21 -78 74 -55 66 29 72 42 65 120 -11 121 -11 187 0 218
6 17 17 86 24 155 7 69 17 132 21 141 4 9 5 49 0 90 -4 42 -4 88 1 108 13 45
-2 58 -74 66 -49 6 -59 5 -64 -9z"/>
<path d="M14088 6761 c-14 -12 -31 -21 -36 -21 -20 0 -22 -19 -8 -77 9 -32 18
-75 21 -95 7 -43 49 -99 70 -92 16 6 34 81 33 139 0 22 3 51 6 65 6 20 0 33
-26 63 l-33 39 -27 -21z"/>
<path d="M13785 6660 c-8 -13 4 -88 18 -115 14 -26 16 -68 20 -375 3 -244 4
-255 23 -255 14 0 20 8 22 30 2 17 14 39 28 50 63 51 57 357 -10 568 -14 43
-30 85 -37 93 -13 16 -55 19 -64 4z"/>
<path d="M12810 5660 c-25 -4 -92 -12 -150 -19 -58 -7 -116 -20 -128 -28 -20
-12 -29 -12 -53 -2 -24 9 -35 9 -54 -1 -21 -11 -147 -16 -260 -10 -58 3 -946
-9 -980 -14 -114 -14 -323 -36 -349 -36 -17 0 -76 -2 -131 -5 -253 -12 -312
-13 -325 -5 -8 5 -22 4 -34 -3 -12 -6 -46 -12 -76 -13 -124 -4 -239 -16 -305
-30 -38 -9 -88 -18 -110 -21 -25 -3 -57 -18 -84 -39 -24 -19 -50 -34 -57 -34
-11 0 -55 -101 -69 -162 -9 -38 2 -65 30 -72 35 -9 48 0 74 50 30 56 103 122
145 129 110 21 273 33 508 39 87 2 171 7 188 11 19 4 36 2 46 -6 11 -9 21 -9
38 -1 12 5 29 7 35 2 7 -4 61 -6 120 -3 58 2 167 6 241 8 74 3 144 6 155 6 11
1 63 -2 115 -6 112 -9 111 -9 175 5 28 6 118 13 200 15 87 3 159 9 172 16 16
9 33 9 65 1 28 -7 62 -7 97 -1 30 4 65 6 78 3 15 -4 31 0 43 11 13 12 30 16
52 13 18 -3 41 0 50 6 14 8 23 7 39 -2 15 -10 24 -11 32 -3 14 14 54 14 63 0
4 -8 32 -10 83 -6 42 2 102 1 135 -5 43 -6 62 -6 73 4 10 8 51 13 122 13 58 0
120 4 137 9 28 7 33 5 39 -13 8 -26 31 -27 44 -2 15 26 -1 109 -30 162 l-24
44 -65 1 c-36 1 -85 -2 -110 -6z m125 -55 c0 -5 -10 -11 -22 -13 -16 -2 -23 2
-23 13 0 11 7 15 23 13 12 -2 22 -7 22 -13z"/>
</g>
</svg>
